<svg width="67" height="94" viewBox="0 0 67 94" fill="none" xmlns="http://www.w3.org/2000/svg">
<path d="M57.7171 46.5351C63.0711 42.0146 69.1321 36.8865 65.1055 27.9723C57.7452 11.683 38.6173 15.6387 33.7146 16.9527C30.3808 8.20787 25.1957 0 18.683 0C8.08812 0 0.00701773 24.596 0.00701773 34.6399C-0.131691 39.7259 1.79073 44.6517 5.33895 48.2984C8.88649 51.9444 13.758 54.0016 18.846 54.0016C23.9333 54.0016 28.805 51.9444 32.353 48.2984C35.9006 44.6517 37.8238 39.7259 37.6843 34.6399C37.3754 29.515 36.3434 24.4591 34.6186 19.6231C39.2805 18.3379 56.0359 14.848 62.4774 29.1304C65.6415 36.1095 61.0648 39.9377 55.8515 44.3877C52.5742 47.2129 49.2116 50.0386 48.1662 53.7825H40.2698C39.2921 53.7825 38.354 54.1705 37.6625 54.8621C36.971 55.5536 36.583 56.4917 36.583 57.4694V75.9344C36.5823 76.2158 36.6661 76.4919 36.8229 76.7251L40.2699 81.9385C40.5332 82.3278 40.9728 82.561 41.4425 82.5603H46.9098V91.8277C46.9098 92.6077 47.5424 93.2402 48.3224 93.2402C49.1024 93.2402 49.735 92.6077 49.735 91.8277V82.5315H55.1882C55.6579 82.5322 56.0975 82.2996 56.3608 81.9103L59.8641 76.7258V76.7251C60.0216 76.4919 60.1053 76.2158 60.1047 75.9344V57.4694C60.1047 56.4917 59.716 55.5535 59.0245 54.8621C58.3329 54.1706 57.3955 53.7825 56.4172 53.7825H51.1904C52.2639 51.1833 54.9201 48.9083 57.7171 46.5355L57.7171 46.5351ZM18.6839 46.6196C15.5626 46.5713 12.5881 45.2874 10.4115 43.0499C8.23496 40.8124 7.03364 37.8037 7.07172 34.6818C7.07172 27.0675 12.5953 7.33252 18.7125 7.19014C19.8658 7.23168 20.9527 7.74161 21.7213 8.6027C26.1291 12.841 30.6215 27.4057 30.6215 34.6671C30.6597 37.846 29.4146 40.9063 27.1678 43.1551C24.9216 45.4046 21.8626 46.6531 18.6837 46.6188L18.6839 46.6196ZM51.5723 60.3371C51.5723 59.5571 52.2049 58.9245 52.9849 58.9245C53.7656 58.9245 54.3981 59.5571 54.3981 60.3371V70.7912C54.3981 71.5712 53.7656 72.2037 52.9849 72.2037C52.2049 72.2037 51.5723 71.5712 51.5723 70.7912V60.3371Z" fill="#059BDF"/>
</svg>
