<svg width="84" height="80" viewBox="0 0 84 80" fill="none" xmlns="http://www.w3.org/2000/svg">
<path d="M80.7585 9.27543C79.4067 10.3949 77.6946 11.0127 75.9338 11.0127C71.7625 11.0127 68.3695 7.61967 68.3695 3.44838C68.3695 3.3048 68.3735 3.16123 68.381 3.01899C68.4392 1.94689 67.6171 1.0333 66.5456 0.97643C65.4573 0.924957 64.5599 1.74037 64.5031 2.81181C64.4915 3.02242 64.4854 3.23577 64.4854 3.44978C64.4854 5.9062 65.2697 8.17901 66.5923 10.0449L53.3513 23.2852L46.3409 16.2749C43.2493 13.1832 38.2192 13.1832 35.1297 16.2749C34.3711 17.0334 34.3711 18.2627 35.1297 19.0205C35.8882 19.779 37.1174 19.779 37.8753 19.0205C39.1444 17.7513 41.0482 17.5224 42.5686 18.2972L15.9447 44.9228C13.3184 47.5491 13.3184 51.8234 15.9447 54.4504L16.3856 54.8913L10.8205 60.4564C10.062 61.2149 10.062 62.4442 10.8205 63.202L12.1283 64.5098L0.568896 76.0678C-0.189632 76.8264 -0.189632 78.0556 0.568896 78.8134C0.948835 79.1927 1.44459 79.3823 1.9417 79.3823C2.43881 79.3823 2.93524 79.1927 3.3145 78.8134L14.8726 67.2554L16.1803 68.5632C16.5603 68.9431 17.056 69.1321 17.5531 69.1321C18.0503 69.1321 18.5467 68.9424 18.926 68.5632L24.491 62.9981L24.9319 63.439C26.2458 64.7529 27.9707 65.4091 29.6951 65.4091C31.4194 65.4091 33.1457 64.7515 34.4583 63.439L61.0822 36.8151C61.8563 38.3356 61.6247 40.2428 60.3406 41.5268C59.5821 42.2854 59.5923 43.5044 60.3501 44.2629C60.7267 44.6408 61.2217 44.8271 61.7182 44.8271C62.2214 44.8271 62.7239 44.6361 63.1059 44.2534C66.1961 41.1631 66.1975 36.1345 63.1059 33.0421L56.0955 26.0318L69.3365 12.7907C71.2038 14.1121 73.4752 14.8976 75.9316 14.8976C78.5939 14.8976 81.1871 13.9637 83.2338 12.2671C84.06 11.5824 84.1745 10.3586 83.4898 9.53298C82.8078 8.70538 81.5826 8.59159 80.7584 9.27562L80.7585 9.27543ZM39.056 53.3498L38.3747 52.6684C37.6161 51.9099 36.3869 51.9099 35.6291 52.6684C34.8705 53.427 34.8705 54.6562 35.6291 55.4141L36.3104 56.0954L31.7152 60.6906C30.6024 61.802 28.7929 61.8033 27.6802 60.6899L23.7656 56.7761C23.0091 56.0176 21.7779 56.0176 21.02 56.7761C20.2615 57.5333 20.2615 58.7639 21.02 59.5217L21.7481 60.2497L17.5558 64.442L14.9409 61.8271L20.506 56.262L20.4071 56.1632C21.1657 55.4046 21.1657 54.1754 20.4071 53.4176L18.6916 51.7021C17.5789 50.5893 17.5789 48.7784 18.6916 47.6671L23.2861 43.0725L31.829 51.6154C32.2089 51.9953 32.7047 52.1843 33.2018 52.1843C33.6989 52.1843 34.1953 51.9946 34.5746 51.6154C35.3331 50.8569 35.3331 49.6276 34.5746 48.8698L33.9163 48.2115L43.4276 38.7001C44.1861 37.9416 44.1861 36.7124 43.4276 35.9545C42.6691 35.196 41.4398 35.196 40.682 35.9545L31.1707 45.4659L26.0316 40.3268L28.9608 37.3976L30.1101 38.5469C30.4901 38.9268 30.9858 39.1158 31.4829 39.1158C31.98 39.1158 32.4765 38.9261 32.8557 38.5469C33.6143 37.7883 33.6143 36.5591 32.8557 35.8013L31.7064 34.652L34.6356 31.7227L36.857 33.9441C37.2369 34.324 37.7326 34.5129 38.2298 34.5129C38.7269 34.5129 39.2233 34.3233 39.6026 33.9441C40.3611 33.1855 40.3611 31.9563 39.6026 31.1984L37.3812 28.9764L40.3098 26.0479L41.4577 27.1965C41.8377 27.5765 42.3348 27.7654 42.8319 27.7654C43.329 27.7654 43.8254 27.5758 44.2047 27.1972C44.9632 26.4387 44.9632 25.2087 44.2054 24.4502L43.0567 23.3009L45.4663 20.8913L50.6054 26.0304L44.3876 32.2482C43.6291 33.0068 43.6291 34.236 44.3876 34.9939C44.7675 35.3738 45.2633 35.5627 45.7604 35.5627C46.2575 35.5627 46.7539 35.3731 47.1332 34.9939L53.351 28.776L58.4901 33.9151L39.056 53.3498Z" fill="#059BDF"/>
</svg>
