<svg width="93" height="90" viewBox="0 0 93 90" fill="none" xmlns="http://www.w3.org/2000/svg">
<path d="M48.9804 55.8094C49.521 58.2318 50.6792 60.3053 52.1077 62.2239C52.2814 62.4564 52.5517 62.7084 52.571 62.9409C52.5903 63.3285 52.4551 63.7355 52.3779 64.1424C51.9919 64.0455 51.432 64.0843 51.2197 63.8517C50.6406 63.1735 50.1773 62.3789 49.5789 61.4875C49.1349 62.4758 48.7681 63.3479 48.382 64.2005C48.1311 64.7625 47.7836 65.2083 47.1273 64.8982C46.4902 64.5881 46.5675 64.0455 46.8377 63.4835C47.1273 62.8634 47.301 62.1851 47.6678 61.6425C48.7874 59.9565 48.2662 58.4256 47.3975 56.8946C44.7529 58.8131 42.5716 58.2899 40.6798 56.507C39.5795 57.5341 38.6336 58.6 39.0003 60.3053C39.1355 60.9642 39.1934 61.6813 39.0776 62.3208C39.0196 62.6696 38.537 62.9603 38.2475 63.2703C37.9772 62.9797 37.5139 62.689 37.4753 62.3595C37.3209 61.3131 37.3402 60.2472 37.263 59.0263C36.4522 59.0263 35.6608 59.0263 34.8693 59.0263C34.2323 59.0263 33.5373 59.0457 33.5567 58.1542C33.576 57.2822 34.2902 57.3209 34.9079 57.3209C35.3326 57.3209 35.7573 57.2628 36.1627 57.3403C37.5912 57.5923 38.344 56.8171 38.9617 55.635C35.7187 54.3753 34.406 51.9529 34.8114 48.4065C33.5953 48.8329 32.4756 49.2011 31.3946 49.6468C31.163 49.7437 30.9699 50.0925 30.8734 50.3638C30.5259 51.4297 30.2171 52.5149 29.8889 53.6001C29.7152 54.1815 29.4449 54.666 28.75 54.4722C28.055 54.2784 28.0744 53.7164 28.2481 53.135C28.5763 52.0304 28.9237 50.9064 29.2712 49.7049C28.113 49.1817 26.974 48.6003 25.7965 48.1352C25.1788 47.8833 24.8313 47.5539 25.0822 46.9143C25.3139 46.2942 25.8351 46.3136 26.3756 46.5461C27.4759 47.0112 28.5569 47.5151 29.6573 47.9027C30.024 48.0383 30.5259 48.0577 30.912 47.9221C32.3984 47.4376 33.8655 46.8562 35.4291 46.2748C34.4639 44.4919 34.4639 42.7866 35.6801 41.0231C33.9813 40.6355 32.4177 40.2673 30.8348 39.9378C30.6032 39.8797 30.275 40.0541 30.0433 40.1704C29.1361 40.6549 28.2481 41.1781 27.3408 41.6626C26.8196 41.9533 26.2405 41.9727 26.0667 41.3525C25.9702 41.0231 26.2405 40.4029 26.53 40.1898C27.3601 39.6084 28.2867 39.1627 29.2519 38.6201C28.5569 37.5736 27.9199 36.6046 27.2829 35.6551C26.9547 35.1512 26.7231 34.6086 27.3022 34.2016C27.9392 33.7559 28.3639 34.1822 28.7114 34.7249C28.8658 34.9768 29.0782 35.19 29.1747 35.4613C30.3329 38.5425 33.0548 38.8139 35.8152 39.1821C35.8152 37.3023 36.4136 35.6357 37.8614 34.376C39.3092 33.1164 41.0466 32.7676 43.0735 33.0582C42.6102 31.9149 42.2241 30.9072 41.7801 29.9188C41.6836 29.6863 41.3747 29.5312 41.1238 29.3762C40.2358 28.853 39.3478 28.3491 38.4598 27.8259C37.9 27.4964 37.07 27.2057 37.5332 26.3337C38.0158 25.4616 38.6722 26.0042 39.2513 26.3337C40.0234 26.7794 40.8149 27.2251 41.7222 27.729C41.8959 26.45 42.089 25.2872 42.2241 24.1051C42.3013 23.4656 42.4943 22.8842 43.2665 23.0198C44.0387 23.1361 44.0194 23.7756 43.9228 24.3958C43.807 25.0353 43.807 25.6942 43.6333 26.3143C43.0155 28.4848 43.614 30.4421 44.7722 32.3994C46.3165 30.8684 48.189 30.1126 50.3896 30.5777C52.6289 31.0622 54.0188 32.5156 54.8295 34.6861C55.7561 34.0853 56.6248 33.5621 57.4548 32.9614C57.6865 32.8063 57.8409 32.4575 57.9181 32.1668C58.2077 31.1785 58.478 30.1708 58.7482 29.1824C58.9026 28.6204 59.2115 28.2135 59.8485 28.3879C60.4662 28.5623 60.5242 29.0855 60.389 29.6475C60.1381 30.5971 59.8871 31.5661 59.5976 32.6125C60.833 32.8645 61.9913 33.097 63.1495 33.3102C63.7672 33.4265 64.2305 33.6978 64.0761 34.3954C63.941 35.0349 63.4197 35.1124 62.8599 34.9768C62.3194 34.8605 61.7789 34.783 61.2384 34.6861C58.4007 34.1435 58.4007 34.1435 56.0457 36.0039C57.9761 37.2248 58.9605 38.9495 58.8254 41.3913C60.6014 41.2169 62.3773 41.7595 64.0182 40.7518C64.8289 40.2479 65.7169 39.8216 66.6242 39.4921C66.9717 39.3759 67.6473 39.4921 67.8403 39.7634C68.2071 40.2479 67.8982 40.713 67.3577 40.9843C66.4312 41.43 65.5239 41.8951 64.4815 42.4184C65.3308 43.2323 66.103 43.9881 66.9137 44.7051C67.3384 45.0927 67.6666 45.519 67.2033 46.0035C66.74 46.488 66.2381 46.4492 65.7169 45.926C64.8289 45.0346 63.883 44.2206 62.9371 43.3873C62.7634 43.2323 62.4932 43.0966 62.2808 43.0773C61.2963 43.0385 60.2925 43.0579 59.1343 43.0579C59.6748 45.2284 59.3466 47.1469 58.1691 48.8523C58.227 48.9298 58.227 48.9685 58.2463 48.9879C60.7751 50.7902 60.7751 50.7902 63.246 48.9879C63.69 48.6585 64.134 48.2903 64.6359 48.1352C64.9641 48.019 65.408 48.2515 65.7941 48.329C65.7169 48.6972 65.7748 49.2205 65.5432 49.4143C64.6552 50.17 63.7093 50.8483 62.7441 51.4684C62.1264 51.8754 61.972 52.263 62.2422 52.98C62.5897 53.9102 62.8213 54.8986 63.0916 55.8481C63.246 56.4295 63.2267 56.9915 62.5318 57.1659C61.8754 57.3209 61.6245 56.8558 61.4701 56.3132C61.277 55.635 60.9682 54.9567 60.9102 54.259C60.7172 52.263 59.3466 51.4684 57.6865 50.8095C57.6479 51.139 57.6286 51.4491 57.59 51.7591C57.3004 54.5303 54.6751 56.4295 52.0305 55.5768C50.9108 55.2668 50.0036 55.383 48.9804 55.8094ZM38.0545 46.5655C37.6877 47.0306 37.2437 47.4763 36.9541 47.9996C35.4291 50.7514 37.3981 54.0265 40.6026 54.1428C40.95 54.1621 41.4326 54.3559 41.5678 54.6079C42.1276 55.7319 42.9576 56.4101 44.2124 56.3908C45.4478 56.3908 46.3165 55.7125 46.8184 54.5691C46.9149 54.3559 47.1852 54.1428 47.4168 54.104C48.5751 53.8521 49.7526 53.6583 51.2004 53.387C52.6482 54.3366 53.7099 54.4722 54.8102 53.5614C56.4124 52.2436 56.065 50.7127 55.1577 49.2011C57.8602 47.0888 58.1498 46.0229 56.9529 42.7478C56.895 42.5928 56.8564 42.3602 56.9143 42.2246C57.8795 39.7828 56.1229 37.2829 53.7292 37.1666C53.6134 37.1666 53.4975 37.0891 53.3817 37.0504C53.0536 34.0853 52.0112 32.6319 50.0035 32.2637C47.745 31.8567 46.5096 32.7288 44.8494 35.9264C42.9769 34.5117 40.9886 34.0466 39.0389 35.6938C37.263 37.2054 37.2437 39.1239 38.1703 41.12C35.8538 43.2323 35.8345 44.0656 38.0545 46.5655Z" fill="#059BDF"/>
<path d="M45.3125 82.258C35.498 81.8454 27.0911 78.2888 20.2075 71.2542C13.3431 64.2392 9.85307 55.6916 9.44815 45.6899C9.08179 45.6899 8.73472 45.6899 8.38764 45.6899C5.9774 45.6899 3.56716 45.6899 1.15692 45.6899C0.559176 45.6899 0 45.5916 0 44.8449C0 44.0982 0.539894 44 1.15692 44C5.3411 44 9.50599 44 13.6902 44C15.9269 44 18.1636 44 20.4774 44C20.4774 44.5698 20.4774 45.1004 20.4774 45.7685C19.6097 45.7685 18.7613 45.7685 17.9322 45.7685C17.9129 60.211 30.2148 73.5532 45.3125 73.6318C45.3125 72.7672 45.3125 71.9026 45.3125 70.9987C45.891 70.9987 46.3731 70.9987 46.9129 70.9987C46.9322 71.3721 46.9708 71.7258 46.9708 72.0795C46.9708 77.5421 46.9708 83.0047 46.9708 88.487C46.9708 88.6835 47.0479 88.9389 46.9515 89.0568C46.7008 89.4105 46.3731 89.6856 46.0838 90C45.8332 89.6856 45.3704 89.3712 45.3511 89.0372C45.274 87.1508 45.3125 85.2448 45.3125 83.3387C45.3125 83.0047 45.3125 82.6707 45.3125 82.258ZM45.3125 75.7146C27.7853 73.4942 18.0479 63.5318 15.8497 45.7685C14.3458 45.7685 12.8032 45.7685 11.2799 45.7685C11.1835 64.8484 27.901 80.745 45.3125 80.352C45.3125 79.1534 45.3125 77.9547 45.3125 76.7364C45.3125 76.3434 45.3125 75.9504 45.3125 75.7146Z" fill="#059BDF"/>
<path d="M45.3509 7.72136C45.3509 5.64435 45.3509 3.62613 45.3509 1.6079C45.3509 0.922099 45.1605 -0.0380264 46.2075 0.0011624C47.1593 0.0207568 46.988 0.941694 46.988 1.58831C46.988 6.97677 46.988 12.3652 46.988 17.7537C46.988 18.1064 46.988 18.4591 46.988 18.8902C46.4359 18.8902 45.96 18.8902 45.3509 18.8902C45.3509 18.0084 45.3509 17.1463 45.3509 16.2057C38.0979 16.5388 31.9111 19.1841 26.7522 24.2786C21.6313 29.3536 18.852 35.6238 18.2238 42.9129C18.0144 42.9521 17.8621 42.9913 17.7098 42.9913C17.4052 43.0109 17.0816 42.9913 16.777 42.9913C16.5866 30.7448 27.723 14.9517 45.2937 14.4226C45.2937 12.8159 45.2937 11.2092 45.2937 9.60242C30.312 9.3477 13.103 22.0253 11.6371 42.8345C11.1612 42.8345 10.6663 42.8345 10 42.8345C10.6853 33.1941 14.2642 24.9448 21.0222 18.224C27.7611 11.5031 35.9087 8.11325 45.3509 7.72136Z" fill="#059BDF"/>
<path d="M81.7348 45.7892C80.0566 45.7892 78.4941 45.7892 76.9316 45.7892C75.8321 64.8676 60.4581 74.7277 49 75C49 74.5332 49 74.0471 49 73.4636C58.3748 72.4329 65.8014 68.0376 70.8939 59.9279C73.5559 55.6882 74.9448 51.0207 75.1184 45.8864C74.2118 45.8087 73.4016 45.7503 72.5142 45.6725C72.5142 45.1669 72.5142 44.6807 72.5142 44C73.9417 44 75.3306 44 76.7387 44C81.6962 44.0194 86.6344 44.0389 91.5918 44.0583C91.7462 44.0583 91.9584 44 92.0741 44.0778C92.402 44.3112 92.6914 44.6029 93 44.8557C92.6914 45.1474 92.3827 45.6725 92.0548 45.692C90.3187 45.7698 88.5826 45.7309 86.8466 45.7309C85.7663 45.7309 84.6861 45.7309 83.6637 45.7309C83.3358 48.0841 83.1429 50.34 82.68 52.5571C81.1368 60.0834 77.5296 66.4624 72.032 71.7716C71.9356 71.8689 71.8584 72.005 71.7427 72.0245C71.3183 72.0828 70.7589 72.2967 70.4888 72.1023C69.968 71.7327 70.1995 71.2077 70.6046 70.7798C71.8198 69.4768 73.0929 68.2321 74.1925 66.8513C78.8606 60.9391 81.3683 54.1907 81.7541 46.6449C81.7348 46.3726 81.7348 46.1198 81.7348 45.7892Z" fill="#059BDF"/>
<path d="M49 9.37486C49 9.00168 49 8.51066 49 8C66.3438 8.54994 82.2742 23.8895 83 43C82.5034 43 82.0258 43 81.6247 43C78.8551 23.4966 68.0247 12.321 49 9.37486Z" fill="#059BDF"/>
<path d="M49 16.5135C49 16.106 49 15.6403 49 15C55.9222 15.5627 61.95 18.0852 67.0444 22.684C73.0333 28.0977 76.3194 34.8697 77 43C76.3972 43 75.9306 43 75.4833 43C73.0917 27.7678 64.3222 18.939 49 16.5135Z" fill="#059BDF"/>
<path d="M49 81.9914C49 81.408 49 80.922 49 80.4359C50.8106 80.1248 52.6212 79.8914 54.3933 79.522C58.708 78.6082 62.6759 76.8388 66.3356 74.35C66.5283 74.2139 66.7016 74 66.8942 74C67.2602 74 67.8766 74.0194 67.9536 74.2139C68.0885 74.525 67.8958 74.9916 67.7995 75.3999C67.7803 75.4972 67.6069 75.5555 67.4914 75.6333C62.098 79.347 56.1461 81.4469 49.6549 81.9914C49.4815 82.0108 49.2889 81.9914 49 81.9914Z" fill="#059BDF"/>
<path d="M37.7042 46.8385C35.4024 44.2581 35.4225 43.398 37.8243 41.2376C36.8635 39.1973 36.8836 37.197 38.7249 35.6368C40.7264 33.9365 42.788 34.3966 44.7494 35.8768C46.4707 32.5763 47.7517 31.6762 50.0934 32.0963C52.195 32.4763 53.2558 33.9766 53.596 37.037C53.7161 37.077 53.8362 37.137 53.9563 37.157C56.4381 37.277 58.2595 39.8574 57.2587 42.3778C57.1987 42.5378 57.2387 42.7579 57.2988 42.9179C58.5397 46.2984 58.2595 47.3986 55.4374 49.5789C56.3981 51.1391 56.7384 52.7194 55.0771 54.0796C53.9363 55.0197 52.8154 54.8797 51.3343 53.8995C49.8132 54.1796 48.6123 54.3796 47.4114 54.6396C47.1712 54.6997 46.891 54.9197 46.7909 55.1197C46.2505 56.2999 45.3699 56.98 44.0889 57C42.808 57 41.9273 56.2999 41.3469 55.1597C41.2068 54.8997 40.6864 54.6997 40.3461 54.6797C37.0237 54.5596 34.9821 51.1791 36.5633 48.3387C36.8635 47.7786 37.3239 47.3186 37.7042 46.8385ZM45.9303 48.1587C48.1119 48.1787 49.8532 46.4184 49.8732 44.1381C49.8933 42.2378 48.0118 40.4775 45.9903 40.4575C43.9088 40.4375 42.1074 42.1578 42.0474 44.1981C42.0074 46.3384 43.7487 48.1187 45.9303 48.1587ZM51.8747 46.7785C49.9733 46.8185 48.5523 48.1787 48.5923 49.9189C48.6523 51.6992 50.0734 53.0994 51.7947 53.0394C53.576 52.9794 54.897 51.5192 54.877 49.6589C54.877 48.2387 53.3158 46.7585 51.8747 46.7785ZM43.2283 50.639C43.2083 48.9788 42.0474 47.8386 40.3862 47.8386C38.6449 47.8586 37.484 48.9988 37.484 50.6991C37.484 52.2993 38.805 53.5795 40.4262 53.5395C42.0074 53.4995 43.2483 52.1993 43.2283 50.639ZM41.527 41.0976C42.828 41.0976 43.8688 40.0375 43.8688 38.7573C43.8688 37.4771 42.808 36.4369 41.507 36.4369C40.206 36.4369 39.1653 37.4971 39.1653 38.7973C39.1653 40.0775 40.226 41.0976 41.527 41.0976ZM50.854 40.2975C50.874 41.5777 51.9548 42.6178 53.2558 42.5978C54.5567 42.5578 55.5575 41.4977 55.5375 40.1975C55.5174 38.8973 54.4366 37.8771 53.1557 37.8971C51.8547 37.9171 50.834 38.9773 50.854 40.2975Z" fill="#059BDF"/>
</svg>
