<svg width="86" height="86" viewBox="0 0 86 86" fill="none" xmlns="http://www.w3.org/2000/svg">
<path d="M82.6455 24.4593L65.0311 42.0744L50.3374 27.3807L74.7986 2.92146C75.4679 2.25221 75.4679 1.17041 74.7986 0.501942C74.1293 -0.167314 73.0476 -0.167314 72.3791 0.501942L39.8639 33.0171C39.1946 33.6864 39.1946 34.7682 39.8639 35.4366L40.3651 35.9378L0.501942 75.799C-0.167314 76.4683 -0.167314 77.55 0.501942 78.2185L1.38358 79.1002C5.71998 83.4381 11.417 85.6063 17.1141 85.6063C17.3945 85.6063 17.6756 85.5773 17.956 85.5666L42.7849 85.5674C43.7292 85.5674 44.4962 84.8003 44.4962 83.856C44.4962 82.9118 43.7292 82.1447 42.7849 82.1447H29.0254C30.3792 81.286 31.6658 80.2814 32.8453 79.1017L50.8402 61.1067C51.5095 60.4375 51.5095 59.3557 50.8402 58.6872L50.0465 57.8934C47.3772 55.2242 47.3772 50.8801 50.0465 48.2122L51.3414 46.9135L56.9765 52.5485C57.3103 52.8824 57.7489 53.0504 58.1866 53.0504C58.6244 53.0504 59.0629 52.8824 59.3968 52.5493L85.0667 26.8794C85.7359 26.2101 85.7359 25.1283 85.0667 24.4599C84.3974 23.7899 83.3156 23.7899 82.6464 24.4591L82.6455 24.4593ZM47.6249 45.7893C43.7606 49.6536 43.6271 55.8572 47.2208 59.884L30.4261 76.6786C26.9866 80.1181 22.5372 81.9256 18.0244 82.1412H17.1137C17.064 82.1412 17.0228 82.1648 16.9754 82.1687C12.3464 82.1343 7.72586 80.4214 4.13521 77.0018L42.7838 38.3572L48.9209 44.4943L47.6249 45.7893ZM58.1854 48.9193L43.4917 34.2256L47.9175 29.7998L62.6112 44.4936L58.1854 48.9193Z" fill="#059BDF"/>
</svg>
