<svg width="85" height="56" viewBox="0 0 85 56" fill="none" xmlns="http://www.w3.org/2000/svg">
<path d="M81.6461 12.7297C77.7636 12.7297 75.8831 15.2343 73.4997 18.3823C70.9071 21.8183 67.9707 25.7262 62.0732 25.7262C56.1757 25.7262 53.2266 21.7916 50.6339 18.3823C48.2504 15.2346 46.3699 12.7297 42.4874 12.7297C38.605 12.7297 36.7244 15.2343 34.3539 18.3823C31.7614 21.8183 28.825 25.7262 22.9275 25.7262C17.03 25.7262 14.0809 21.7916 11.4881 18.3823C9.10469 15.2346 7.23708 12.7297 3.35462 12.7297C2.1873 12.8212 1.18023 11.8899 1.08176 10.6577C0.996057 9.41171 1.86854 8.33681 3.02303 8.23171C3.13359 8.2189 3.23215 8.2189 3.34271 8.23171C9.24022 8.23171 12.1775 12.1663 14.7691 15.563C17.1526 18.7236 19.0331 21.2156 22.9156 21.2156C26.798 21.2156 28.6656 18.7236 31.0491 15.563C33.6537 12.127 36.5901 8.27105 42.5003 8.27105C48.4105 8.27105 51.3469 12.2056 53.9397 15.6023C56.3231 18.7629 58.2037 21.2549 62.0861 21.2549C65.9686 21.2549 67.8491 18.7629 70.2326 15.6023C72.8251 12.1663 75.7615 8.27105 81.659 8.27105C82.8263 8.17957 83.8334 9.11083 83.9319 10.3431C84.0176 11.589 83.1451 12.6639 81.9906 12.769C81.88 12.7818 81.7815 12.7818 81.6709 12.769L81.6461 12.7297ZM3.35419 4.50758H81.6461C82.8134 4.59906 83.8205 3.66781 83.919 2.43556C84.0047 1.18961 83.1322 0.114709 81.9777 0.00960528C81.8671 -0.00320176 81.7686 -0.00320176 81.658 0.00960528L3.35293 0.00869048C2.18561 -0.082788 1.17854 0.848466 1.08007 2.08072C0.981509 3.31386 1.86685 4.40156 3.02134 4.50667C3.1439 4.52039 3.24161 4.52039 3.35302 4.50758H3.35419ZM13.1831 39.3524C11.3404 39.3524 9.84147 40.9524 9.84147 42.9191C9.84147 44.8859 11.3405 46.4858 13.1831 46.4858C15.0258 46.4858 16.5247 44.8858 16.5247 42.9191V42.9063C16.5247 40.9395 15.0377 39.3522 13.1949 39.3522H13.1332L13.1831 39.3524ZM32.6702 39.3524C30.8275 39.3524 29.3286 40.9524 29.3286 42.9191C29.3286 44.8859 30.8276 46.4858 32.6702 46.4858C34.5128 46.4858 36.0118 44.8858 36.0118 42.9191V42.9063C36.0118 40.9395 34.5248 39.3522 32.682 39.3522H32.67L32.6702 39.3524ZM52.3297 39.3524C50.487 39.3396 48.9881 40.9396 48.9751 42.9064C48.9631 44.8732 50.4621 46.4731 52.3049 46.4869C54.1476 46.4998 55.6465 44.8998 55.6595 42.9329V42.9064C55.6595 40.9396 54.1725 39.3523 52.3297 39.3523V39.3524ZM71.9026 39.3524C70.0599 39.3396 68.561 40.9396 68.548 42.9064C68.536 44.8732 70.035 46.4731 71.8778 46.4869C73.7205 46.4998 75.2194 44.8998 75.2323 42.9329V42.9064C75.2323 40.9396 73.7453 39.3523 71.9026 39.3523H71.8657L71.9026 39.3524ZM3.35462 30.0544C1.51194 30.0416 0.0130167 31.6416 7.15353e-05 33.6085C-0.0119273 35.5753 1.48708 37.1752 3.32983 37.189C5.17252 37.2018 6.67144 35.6018 6.68438 33.6349V33.6221C6.68438 31.6544 5.19738 30.0672 3.35462 30.0545V30.0544ZM22.9275 30.0544C21.0848 30.0416 19.5859 31.6416 19.5729 33.6085C19.5609 35.5753 21.0599 37.1752 22.9027 37.189C24.7454 37.2018 26.2443 35.6018 26.2573 33.6349V33.6221C26.2573 31.6544 24.7703 30.0672 22.9275 30.0545V30.0544ZM42.5004 30.0544C40.6577 30.0544 39.1588 31.6544 39.1588 33.6211C39.1588 35.5879 40.6578 37.1878 42.5004 37.1878C44.343 37.1878 45.842 35.5878 45.842 33.6211C45.842 31.6543 44.343 30.0544 42.5004 30.0544ZM62.0732 30.0544C60.2305 30.0544 58.7316 31.6544 58.7316 33.6211C58.7316 35.5879 60.2306 37.1878 62.0732 37.1878C63.9159 37.1878 65.4148 35.5878 65.4148 33.6211C65.4268 31.6543 63.9407 30.0671 62.0972 30.0544H62.0732H62.0732ZM78.3164 33.6211C78.3164 35.5879 79.8154 37.1878 81.658 37.1878C83.5006 37.1878 84.9996 35.5878 84.9996 33.6211C84.9996 31.6543 83.5006 30.0544 81.658 30.0544H81.646C79.8033 30.0673 78.3162 31.6544 78.3162 33.6211H78.3164ZM3.36603 48.7555C1.52335 48.7427 0.0244264 50.3427 0.0114813 52.3096C-0.000517589 54.2764 1.49848 55.8762 3.34124 55.8901C5.18393 55.9029 6.68285 54.3029 6.69579 52.336V52.3232C6.69579 50.3564 5.19679 48.7565 3.35419 48.7565L3.36603 48.7555ZM22.9389 48.7555C21.0962 48.7427 19.5973 50.3427 19.5844 52.3096C19.5724 54.2764 21.0714 55.8762 22.9141 55.8901C24.7568 55.9029 26.2557 54.3029 26.2687 52.336V52.3232C26.2687 50.3555 24.7697 48.7556 22.9389 48.7556H22.9269L22.9389 48.7555ZM42.5118 48.7555C40.6691 48.7555 39.1702 50.3555 39.1702 52.3222C39.1702 54.289 40.6692 55.8889 42.5118 55.8889C44.3545 55.8889 45.8534 54.2889 45.8534 52.3222C45.8542 50.3554 44.3552 48.7555 42.5118 48.7555H42.4998H42.5118ZM62.0855 48.7555C60.2428 48.7555 58.7439 50.3555 58.7439 52.3222C58.7439 54.289 60.2429 55.8889 62.0855 55.8889C63.9281 55.8889 65.4271 54.2889 65.4271 52.3222C65.4391 50.3554 63.953 48.7682 62.1094 48.7555H62.0726H62.0855ZM81.6584 48.7555C79.8157 48.7555 78.3168 50.3555 78.3168 52.3222C78.3168 54.289 79.8158 55.8889 81.6584 55.8889C83.5011 55.8889 85 54.2889 85 52.3222C85 50.3554 83.501 48.7555 81.6584 48.7555H81.6464H81.6584Z" fill="#25A8E3"/>
</svg>
