<svg width="87" height="87" viewBox="0 0 87 87" fill="none" xmlns="http://www.w3.org/2000/svg">
<path d="M12.0927 80.2818C10.7667 80.2818 9.45844 80.2818 8.06177 80.2818C8.06177 71.4591 8.06177 62.6364 8.06177 53.7451C9.38772 53.7451 10.696 53.7451 12.0927 53.7451C12.0927 62.5678 12.0927 71.3906 12.0927 80.2818Z" fill="#059BDF"/>
<path d="M58.2611 0C58.6697 0.102153 59.0783 0.221331 59.4699 0.323483C63.9306 1.43014 66.9611 5.34599 66.893 9.85773C66.8249 14.3014 63.6241 18.1832 59.2145 19.1366C54.0388 20.2603 48.7098 16.736 47.7564 11.5432C46.7689 6.14618 50.3272 1.02153 55.6732 0.170254C55.8605 0.136203 56.0478 0.0510763 56.218 0C56.8991 0 57.5801 0 58.2611 0Z" fill="#059BDF"/>
<path d="M86.9659 86.9998C85.6379 86.9998 84.327 86.9998 82.9138 86.9998C82.9138 86.5571 82.9138 86.2166 82.9138 85.8932C82.9138 75.1331 82.9138 64.373 82.9138 53.6129C82.9138 51.638 82.2158 50.957 80.2749 50.957C75.661 50.957 71.0471 50.957 66.4332 50.957C66.1268 50.957 65.8203 50.957 65.5138 50.957C65.3947 49.629 65.2925 48.3351 65.1733 46.939C65.4117 46.939 65.7011 46.939 65.9906 46.939C70.7407 46.939 75.5078 46.939 80.2579 46.939C83.8162 46.939 85.9103 48.5564 86.8297 51.9785C86.8467 52.0466 86.9148 52.1147 86.9659 52.1828C86.9659 63.7771 86.9659 75.3885 86.9659 86.9998Z" fill="#059BDF"/>
<path d="M51.3317 35.3451C50.5656 38.2224 49.7824 41.0996 48.9822 44.0961C42.9892 44.0961 36.809 44.0961 30.5947 44.0961C31.4971 37.4903 33.2847 31.1908 36.4174 25.3C37.3368 23.5805 38.3072 21.8779 39.3117 20.2094C40.6908 17.911 43.1595 17.1108 45.6282 18.1323C48.7609 19.4263 51.8765 20.7883 55.0092 22.0822C56.7288 22.7973 57.6992 24.0061 58.0568 25.8449C59.538 33.4723 61.0532 41.0997 62.5685 48.727C63.0112 50.9404 61.6832 53.0515 59.555 53.5282C57.2906 54.039 55.1795 52.728 54.7027 50.4296C53.7153 45.6625 52.7959 40.8953 51.8425 36.1282C51.7914 35.8899 51.7233 35.6515 51.6552 35.4132C51.536 35.3621 51.4339 35.3621 51.3317 35.3451Z" fill="#059BDF"/>
<path d="M38.7328 55.4179C38.3242 59.4019 37.9156 63.3177 37.524 67.2336C37.0303 71.9667 36.5535 76.6827 36.0598 81.4158C36.0087 81.9436 35.9747 82.4884 35.8725 83.0162C35.3788 85.57 33.0633 87.3066 30.6627 86.915C27.9387 86.4723 26.2872 84.2079 26.5937 81.5009C27.1215 76.7849 27.5641 72.0518 28.0579 67.3187C28.5175 62.824 28.9942 58.3293 29.4539 53.7835C29.7774 53.7665 30.0498 53.7494 30.3222 53.7494C36.5876 53.7494 42.8359 53.7494 49.1013 53.7324C49.7483 53.7324 50.0207 53.8856 50.1739 54.5667C51.0592 58.3293 52.1318 62.0579 52.898 65.8545C53.2214 67.506 53.0342 69.2766 52.949 70.9962C52.7788 74.7588 52.5234 78.5215 52.3021 82.267C52.1829 84.242 51.2976 85.7402 49.4758 86.5575C47.7563 87.3236 46.0878 87.0682 44.6066 85.9105C43.3637 84.923 42.7849 83.595 42.87 82.0287C43.0743 77.9085 43.2616 73.7714 43.6191 69.6512C43.7723 67.8635 43.3297 66.2291 42.9381 64.5606C42.2911 61.8706 41.576 59.1976 40.9802 56.4905C40.7758 55.5882 40.4183 55.2136 39.516 55.3839C39.2606 55.4009 39.0393 55.4009 38.7328 55.4179Z" fill="#059BDF"/>
<path d="M51.1274 46.9217C51.3998 48.2668 51.6552 49.5607 51.9276 50.9398C51.4509 50.9398 51.0252 50.9398 50.5996 50.9398C35.9577 50.9398 21.3158 50.9398 6.67397 50.9398C4.71605 50.9398 4.018 51.6208 4.018 53.5787C4.018 64.3388 4.018 75.0988 4.018 85.8589C4.018 86.1994 4.018 86.5229 4.018 86.8975C2.65597 86.8975 1.36203 86.8975 0 86.8975C0 86.557 0 86.2505 0 85.944C0 75.1329 0 64.3047 0 53.4936C0 49.4585 2.53679 46.8877 6.55479 46.8877C21.1115 46.8877 35.6683 46.8877 50.225 46.8877C50.4974 46.9217 50.7869 46.9217 51.1274 46.9217Z" fill="#059BDF"/>
<path d="M78.7255 80.139C77.4486 80.139 76.1888 80.139 74.8438 80.139C74.8438 71.3709 74.8438 62.6028 74.8438 53.7666C76.1207 53.7666 77.3805 53.7666 78.7255 53.7666C78.7255 62.5347 78.7255 71.3028 78.7255 80.139Z" fill="#059BDF"/>
<path d="M8.37659 44.1468C8.42766 42.0356 10.5218 39.7883 12.8713 39.2775C13.1948 39.2094 13.5353 39.1243 13.8758 39.1243C18.7451 39.1072 23.5973 39.1243 28.5858 39.1243C28.3474 40.4523 28.1261 41.7462 27.8877 43.1423C27.5643 43.1423 27.2578 43.1423 26.9513 43.1423C22.8142 43.1423 18.694 43.1593 14.5568 43.1423C13.8077 43.1423 13.1778 43.3125 12.65 43.8744C12.5138 44.0276 12.2754 44.1468 12.0881 44.1468C10.8623 44.1638 9.61944 44.1468 8.37659 44.1468Z" fill="#059BDF"/>
<path d="M78.6234 44.1468C77.3124 44.1468 76.0526 44.1468 74.7927 44.1468C74.6395 44.1468 74.4522 44.0616 74.367 43.9595C73.7712 43.2104 72.971 43.1252 72.0856 43.1252C69.5148 43.1423 66.944 43.1423 64.322 43.1423C64.0496 41.7973 63.7943 40.5204 63.5219 39.1583C63.8453 39.1413 64.0837 39.1243 64.3391 39.1243C67.1312 39.1243 69.9404 39.1072 72.7326 39.1243C75.4907 39.1583 77.8573 40.98 78.5723 43.5849C78.5894 43.7211 78.5894 43.8914 78.6234 44.1468Z" fill="#059BDF"/>
</svg>
