<svg width="101" height="86" viewBox="0 0 101 86" fill="none" xmlns="http://www.w3.org/2000/svg">
<path d="M89.821 0.00195527C84.2369 0.00195527 75.8497 2.10147 63.5418 7.52924C63.5418 8.64643 56.7734 9.17074 50.0171 9.17074C43.2605 9.17152 36.4814 8.66902 36.4814 7.57443C24.1742 2.14586 15.7863 0.00187462 10.2022 0.00187462C-6.98652 0.00187462 2.18278 19.9156 4.69603 24.2937C8.0467 30.0791 6.39354 30.9953 6.39354 30.9953V30.9946C6.7036 31.0475 7.01755 31.074 7.33149 31.0732C13.5412 31.0732 16.4228 21.0218 16.4228 21.0218V21.0211C15.3197 21.5578 14.1184 21.8625 12.8939 21.9147C12.3291 21.9248 11.7697 21.8149 11.2517 21.5906C9.56506 20.7757 0.7651 5.68677 11.7993 5.68677C15.15 5.68677 20.5331 7.13894 28.5516 10.9135C28.5516 10.9135 34.7161 16.0288 33.1418 23.3333C33.0413 23.863 33 24.4022 33.0187 24.9413C31.9577 30.8722 29.2217 51.8239 38.7368 63.6627C38.7368 63.6627 44.3209 70.52 44.3209 86H55.7345C55.7345 70.52 61.3186 63.6627 61.3186 63.6627C70.9342 51.7118 68.0199 30.4478 67.0477 24.7618H67.0484C67.05 24.2803 66.997 23.8012 66.8919 23.3322C65.3174 16.0277 71.471 10.9124 71.471 10.9124C79.5121 7.137 84.8727 5.68568 88.2234 5.68568C99.235 5.68568 90.4568 20.7746 88.7593 21.5117C88.2413 21.7353 87.6819 21.8459 87.1179 21.8358C85.8886 21.7844 84.6834 21.4805 83.5772 20.9422C83.5772 20.9422 86.4697 30.9936 92.6685 30.9936C92.9825 30.9944 93.2964 30.9687 93.6065 30.9157C93.6065 30.9157 91.9759 30.0221 95.304 24.2141C97.7945 19.9143 107.019 0 89.8204 0L89.821 0.00195527ZM50.4311 65.5282C50.1717 65.6777 49.8523 65.6777 49.5936 65.5282C38.4254 59.1507 35.0747 46.8539 39.9555 29.9898C42.6245 20.6971 39.6431 17.302 39.6096 17.2685H39.6088C39.4179 17.0566 39.3431 16.7645 39.4078 16.4871C39.481 16.2113 39.6859 15.9893 39.9555 15.895C46.4759 13.6972 53.5372 13.6972 60.0583 15.895C60.3278 15.9893 60.5319 16.2121 60.6012 16.4887C60.6706 16.7652 60.5973 17.0582 60.4049 17.2685C60.3488 17.3246 57.4011 20.7306 60.059 29.9898C64.917 46.9104 61.5883 59.1959 50.4318 65.5282H50.4311Z" fill="#059BDF"/>
</svg>
