<svg width="77" height="86" viewBox="0 0 77 86" fill="none" xmlns="http://www.w3.org/2000/svg">
<path d="M76.6096 72.7807C76.6076 60.6703 68.1085 50.5559 56.757 48.0698C58.7963 50.1359 60.1326 52.8949 60.3929 55.9554C63.1497 56.5735 65.2162 59.0386 65.2162 61.98C65.2162 65.3864 62.4475 68.1577 59.0433 68.1577C55.6391 68.1577 52.8705 65.3869 52.8705 61.98C52.8705 59.0932 54.8638 56.6682 57.5426 55.9941C57.1926 52.7017 55.2299 49.8849 52.4619 48.3503L38.3044 61.627L23.9233 48.1397C20.728 49.719 18.5037 52.9607 18.3839 56.7328C18.9337 57.0525 19.3783 57.5474 19.6511 58.1448C21.6797 59.1033 23.4728 61.1195 24.8438 63.9916C25.0734 64.4758 25.1034 65.0207 24.9343 65.5196C25.7569 67.6397 26.2275 69.9543 26.2275 71.8992C26.2275 74.624 26.2275 77.2004 23.2605 77.8625C22.939 78.1296 22.537 78.2768 22.1137 78.2768H20.131C19.136 78.2768 18.326 77.4662 18.326 76.4711L18.3327 76.3432C18.3992 75.41 19.1886 74.6654 20.131 74.6654H22.1137C22.3161 74.6654 22.5157 74.7 22.7061 74.7666C22.8252 74.732 22.8645 74.7054 22.8645 74.7054C23.0861 74.3117 23.0861 72.6819 23.0861 71.8992C23.0861 70.3206 22.6908 68.4137 21.9986 66.6385C21.6399 66.434 21.351 66.125 21.1713 65.7513C19.968 63.2316 18.3328 61.6044 17.0037 61.6044C15.6453 61.6044 13.9288 63.3634 12.7323 65.9805C12.5366 66.4074 12.1938 66.7558 11.7712 66.9609C11.1463 68.6567 10.8029 70.4026 10.8029 71.8978C10.8029 72.5546 10.8029 74.3024 11.0544 74.7099C11.0571 74.7099 11.1123 74.7446 11.2701 74.7832C11.4751 74.7046 11.6954 74.664 11.9163 74.664H13.9029C14.8201 74.664 15.5881 75.356 15.6919 76.2599L15.7026 76.2799L15.7066 76.3991C15.7066 77.4648 14.8973 78.2754 13.9029 78.2754H11.9163C11.5223 78.2754 11.1403 78.1436 10.8275 77.9038C9.69407 77.69 8.89334 77.1884 8.3856 76.3731C7.77329 75.3867 7.66149 74.0918 7.66149 71.8965C7.66149 69.9688 8.10542 67.7514 8.91339 65.6335C8.79492 65.1799 8.83419 64.707 9.03186 64.2807C9.87311 62.4403 10.942 60.8651 12.1239 59.7247C12.7735 59.0993 13.471 58.5951 14.201 58.2274C14.4765 57.584 14.9551 57.0578 15.5374 56.7248C15.6193 53.4504 16.9344 50.4831 19.0382 48.2623C8.09473 51.0472 0 60.9636 0 72.7805C0 85.3806 9.19982 86 21.248 86C22.5612 86 23.9102 85.9926 25.2859 85.9926H51.3284C52.6974 85.9926 54.0478 86 55.3616 86C67.4073 86 76.6114 85.3818 76.6114 72.7805L76.6096 72.7807ZM54.4484 75.4271C54.4484 75.7554 54.1515 76.0212 53.7842 76.0212H50.1755V79.6327C50.1755 80.0004 49.9086 80.2981 49.5818 80.2981H46.0199C45.6918 80.2981 45.4262 79.999 45.4262 79.6327V76.0212H41.8169C41.4515 76.0212 41.154 75.7554 41.154 75.4271V71.8637C41.154 71.534 41.4528 71.2695 41.8169 71.2695H45.4262L45.4269 67.6574C45.4269 67.2897 45.6924 66.992 46.0206 66.992H49.5825C49.9086 66.992 50.1762 67.291 50.1762 67.6574V71.2689H53.7848C54.1529 71.2689 54.449 71.5333 54.449 71.863L54.4484 75.4271Z" fill="#059BDF"/>
<path d="M60.0872 21.7817C60.0872 33.8117 50.3351 43.5633 38.3056 43.5633C26.2755 43.5633 16.5239 33.8112 16.5239 21.7817C16.5239 9.7523 26.2761 0 38.3056 0C50.3349 0 60.0872 9.75213 60.0872 21.7817Z" fill="#059BDF"/>
<path d="M61.965 61.9649C61.965 63.6248 60.7036 64.9697 59.148 64.9697C57.5925 64.9697 56.3318 63.6249 56.3318 61.9649C56.3318 60.3057 57.5925 58.9609 59.148 58.9609C60.7036 58.9609 61.965 60.3057 61.965 61.9649Z" fill="#059BDF"/>
</svg>
