<svg width="84" height="86" viewBox="0 0 84 86" fill="none" xmlns="http://www.w3.org/2000/svg">
<path d="M46.1099 33.778C45.6923 33.778 45.2706 33.7408 44.8561 33.6682C43.8123 33.4847 42.8363 33.0779 41.9814 32.4769C41.1259 33.0786 40.1505 33.4847 39.1079 33.6682C37.2181 33.9976 35.2884 33.5675 33.7281 32.4745C33.5037 32.3179 33.3417 32.1055 33.2457 31.868C32.3717 32.2369 31.4245 32.4313 30.4509 32.4313L30.3237 32.4301C28.3993 32.3947 26.6049 31.6142 25.2709 30.2315C25.0801 30.0348 24.9613 29.7936 24.9127 29.5428C23.9463 29.7468 22.9247 29.7468 21.9385 29.538C20.0566 29.1379 18.4447 28.0281 17.3967 26.4144C17.248 26.1846 17.1772 25.9249 17.1784 25.6699C16.1664 25.6621 15.1873 25.4923 14.257 25.097C12.4884 24.3447 11.1172 22.9505 10.3966 21.1695C10.2964 20.9212 10.2718 20.6518 10.3228 20.3939C9.34139 20.2187 8.40438 19.8402 7.56572 19.2733C5.97241 18.2001 4.89264 16.5684 4.52545 14.6805C4.47446 14.4196 4.50205 14.1508 4.60103 13.9085C3.6772 13.5509 2.83019 13.002 2.10855 12.2815C0.74859 10.9234 0 9.11594 0 7.19259C0 6.44153 0.6095 5.83203 1.36056 5.83203H30.5409C31.292 5.83203 31.9014 6.44153 31.9014 7.19259C31.9014 12.7518 36.424 17.2743 41.9844 17.2743C47.5424 17.2743 52.0645 12.7518 52.0645 7.19259C52.0645 6.44153 52.674 5.83203 53.425 5.83203H82.6053C83.3564 5.83203 83.9653 6.44153 83.9653 7.19259C83.9653 9.11885 83.2166 10.9258 81.8572 12.2828C81.1367 13.0032 80.2897 13.5521 79.3664 13.9085C79.463 14.1448 79.4936 14.4106 79.442 14.6805C79.0755 16.5659 77.9957 18.1976 76.4005 19.2745C75.5613 19.8402 74.6249 20.2199 73.6428 20.3945C73.6938 20.6525 73.6698 20.9218 73.5696 21.1696C72.8491 22.9501 71.4784 24.3448 69.7086 25.097C68.7782 25.4924 67.798 25.6795 66.7877 25.6699C66.7883 25.9249 66.7181 26.1841 66.5681 26.4144C65.5213 28.0275 63.9083 29.1373 62.0264 29.5381C61.0389 29.7462 60.0173 29.7456 59.0497 29.5417C59.0017 29.7924 58.8835 30.0324 58.6933 30.2304C57.361 31.6131 55.5668 32.3942 53.6422 32.4295L53.5126 32.4307C52.539 32.4307 51.5917 32.2364 50.7171 31.8674C50.6217 32.1044 50.4598 32.3167 50.236 32.4733C49.02 33.327 47.5935 33.7781 46.1106 33.7781L46.1099 33.778ZM41.982 29.3448C42.3431 29.3448 42.6899 29.4888 42.9448 29.745C43.5981 30.3995 44.4212 30.8296 45.327 30.9892C46.0673 31.1187 46.8262 31.0617 47.519 30.8296L45.3281 27.3197C44.9646 26.739 45.0911 25.9783 45.6221 25.5451C46.1512 25.1138 46.9214 25.1408 47.4199 25.6141L50.3954 28.4468C51.243 29.2638 52.3475 29.7108 53.5118 29.7108L53.5928 29.7096C54.3199 29.6964 55.0176 29.5116 55.639 29.1757L51.525 25.2013C51.0211 24.7148 50.9695 23.9248 51.4056 23.3764C51.8411 22.8275 52.6216 22.701 53.2107 23.0819L58.0914 26.2499C59.0836 26.896 60.2971 27.124 61.4609 26.8762C62.1724 26.725 62.8227 26.4101 63.3692 25.9608L58.5707 22.8443C57.984 22.4628 57.7818 21.6973 58.1052 21.0752C58.4291 20.4537 59.1712 20.1784 59.8215 20.4423L65.217 22.6216C66.3172 23.0656 67.5499 23.0584 68.6435 22.5929C69.3136 22.3079 69.8907 21.876 70.3418 21.3319L65.0358 19.1872C64.3861 18.9245 64.0423 18.2112 64.2409 17.5394C64.4407 16.8675 65.1185 16.4608 65.8055 16.5904L71.5195 17.7026C72.6743 17.9263 73.8963 17.6816 74.877 17.0187C75.4805 16.6114 75.9652 16.0769 76.3042 15.4566L70.6856 14.3642C69.9975 14.2298 69.5242 13.5963 69.5914 12.898C69.658 12.2003 70.2446 11.6682 70.9447 11.6682H76.766C77.9622 11.6682 79.0864 11.2027 79.9329 10.3569C80.447 9.84275 80.8201 9.22666 81.0343 8.55239H54.7104C54.0295 14.9748 48.5801 19.9942 41.9812 19.9942C35.3801 19.9942 29.9305 14.9748 29.2491 8.55239L2.92832 8.55419C3.14188 9.22786 3.51561 9.84455 4.02973 10.3587C4.87558 11.2045 6.00037 11.6706 7.19594 11.6706L13.015 11.67C13.7162 11.67 14.3017 12.2021 14.3689 12.8998C14.4367 13.5975 13.9628 14.2322 13.2747 14.366L7.65917 15.4584C7.99871 16.0787 8.48283 16.6138 9.08632 17.0199C10.0677 17.6834 11.2838 17.9269 12.4457 17.7038L18.1568 16.5916C18.8491 16.462 19.5215 16.8693 19.7208 17.5406C19.9205 18.2125 19.5768 18.9257 18.9265 19.1884L13.6216 21.3331C14.0728 21.8772 14.6505 22.3103 15.32 22.5946C16.413 23.0595 17.6469 23.0674 18.7461 22.6228L24.1434 20.4435C24.7925 20.1801 25.5357 20.4549 25.8591 21.0764C26.1824 21.6979 25.9815 22.4639 25.3936 22.8455L20.5932 25.962C21.1397 26.4119 21.7906 26.7262 22.5027 26.8774C23.6635 27.124 24.8796 26.8966 25.8706 26.2523L30.7519 23.083C31.3404 22.7027 32.1208 22.8293 32.5576 23.3776C32.9931 23.9259 32.9415 24.716 32.4376 25.2037L28.3223 29.1768C28.9444 29.5133 29.6439 29.6981 30.3722 29.7113L30.4514 29.7125C31.6152 29.7125 32.7184 29.2656 33.56 28.4545L36.5427 25.6159C37.0382 25.1432 37.8091 25.1138 38.3406 25.5469C38.8715 25.9806 38.9968 26.7407 38.6345 27.3214L36.4436 30.8309C37.1371 31.063 37.8942 31.1206 38.6368 30.9911C39.5409 30.8315 40.3657 30.4008 41.019 29.7457C41.2746 29.4883 41.6207 29.3449 41.9819 29.3449L41.982 29.3448Z" fill="#059BDF"/>
<path d="M40.6211 13.0254H43.3416V86H40.6211V13.0254Z" fill="#059BDF"/>
<path d="M41.9817 14.3861C38.0152 14.3861 34.7883 11.1598 34.7883 7.19395C34.7883 3.22748 38.0152 0 41.9817 0C45.9481 0 49.175 3.22748 49.175 7.19334C49.175 11.1592 45.9481 14.3861 41.9817 14.3861ZM41.9817 2.72054C39.515 2.72054 37.5089 4.72712 37.5089 7.19334C37.5089 9.65895 39.5154 11.6649 41.9817 11.6649C44.4479 11.6649 46.4539 9.65833 46.4539 7.19334C46.4545 4.72712 44.4479 2.72054 41.9817 2.72054Z" fill="#059BDF"/>
<path d="M50.5958 63.2563L48.8021 61.2094C49.9935 60.165 50.6233 58.9329 50.6233 57.6455C50.6233 56.1643 49.7798 54.7402 48.2483 53.6375C46.6147 52.4558 44.3316 51.779 41.9811 51.779C38.362 51.779 34.9395 50.7478 32.3469 48.8749C29.6228 46.9103 28.1218 44.2504 28.1218 41.3864C28.1218 38.528 29.6222 35.8692 32.3469 33.9004L33.9402 36.1049C31.9426 37.5489 30.8418 39.4241 30.8418 41.3864C30.8418 43.3523 31.9414 45.2288 33.9384 46.6686C36.0723 48.2097 38.9283 49.058 41.9805 49.058C44.9327 49.058 47.7238 49.9003 49.8398 51.4312C52.0983 53.0575 53.3431 55.2651 53.3431 57.6449C53.3443 59.7096 52.3676 61.7026 50.5955 63.2563H50.5958Z" fill="#059BDF"/>
<path d="M46.3081 82.9784L44.7201 80.7702C45.2978 80.3545 45.6158 79.8403 45.6158 79.3226C45.6158 78.8013 45.2996 78.2872 44.7243 77.8781C44.0189 77.364 43.0243 77.0742 41.9828 77.0742C39.7613 77.0742 37.6419 76.4491 36.0114 75.3154C35.955 75.2788 35.9076 75.2446 35.8566 75.2044C35.2399 74.7599 34.7192 74.2518 34.3071 73.6933C33.541 72.6956 33.1277 71.5108 33.1277 70.2876C33.1277 69.287 33.4 68.3284 33.9375 67.4399L36.2657 68.8473C35.9885 69.3056 35.8482 69.7909 35.8482 70.2876C35.8482 70.9151 36.0611 71.5108 36.4805 72.0573C36.745 72.4148 37.0725 72.7291 37.4697 73.0141L37.5483 73.0711C38.7288 73.8983 40.3035 74.3537 41.9827 74.3537C43.6119 74.3537 45.1513 74.8222 46.3163 75.6716C47.5953 76.5841 48.3367 77.9182 48.3367 79.3231C48.3361 80.7191 47.5971 82.0515 46.3079 82.9783L46.3081 82.9784Z" fill="#059BDF"/>
<path d="M51.3834 49.0342L49.925 46.7372L50.006 46.682C52.0198 45.2291 53.1194 43.3532 53.1194 41.3879C53.1194 39.4268 52.0186 37.5517 50.0209 36.1064L51.6155 33.9019C54.3402 35.8719 55.8406 38.5307 55.8406 41.3879C55.8406 44.2507 54.3396 46.9099 51.6142 48.8764C51.5129 48.949 51.4541 48.9898 51.3833 49.0342L51.3834 49.0342Z" fill="#059BDF"/>
<path d="M37.6494 82.9783C36.3849 82.0658 35.6681 80.8115 35.6313 79.4467L38.3507 79.3735C38.3639 79.8703 38.68 80.3676 39.2415 80.7725L37.6494 82.9783Z" fill="#059BDF"/>
<path d="M49.6467 73.71L47.4835 72.0591C47.9034 71.5102 48.1157 70.9139 48.1157 70.2864C48.1157 69.2888 47.5369 68.3218 46.4871 67.5636C45.3149 66.7159 43.673 66.23 41.9813 66.23C39.0316 66.23 36.2391 65.3883 34.1185 63.8591C31.8659 62.2299 30.626 60.0229 30.626 57.6442C30.626 55.7611 31.4058 53.9783 32.8798 52.4863L34.8151 54.3988C33.8547 55.37 33.3466 56.4924 33.3466 57.6442C33.3466 59.1266 34.1858 60.5507 35.7113 61.6532C37.3461 62.832 39.6322 63.5087 41.9808 63.5087C44.2658 63.5087 46.4325 64.165 48.0805 65.3576C49.8573 66.6395 50.8357 68.3906 50.8357 70.2857C50.8363 71.5065 50.4248 72.6906 49.6468 73.7099L49.6467 73.71Z" fill="#059BDF"/>
</svg>
