<svg width="81" height="87" viewBox="0 0 81 87" fill="none" xmlns="http://www.w3.org/2000/svg">
<path d="M79.5536 26.0997H78.1072V18.8498C78.1098 18.6659 78.0756 18.4834 78.0058 18.3131L75.113 11.0632V9.3666C75.2143 4.74155 73.4786 0 70.1518 0C66.825 0 65.0893 4.74155 65.0893 9.42493C65.0893 14.1083 66.825 18.8499 70.1518 18.8499C70.9945 18.7871 71.8004 18.4796 72.4712 17.9643C73.1415 17.4497 73.6477 16.7493 73.9267 15.9499L75.2143 19.1256V26.0999H73.7678C72.9691 26.0999 72.3214 26.7491 72.3214 27.5498V41.2089L63.8888 46.0373L62.3559 44.5006L63.1224 41.3973C63.4698 40.023 63.6448 38.61 63.6428 37.1923V33.3497C63.6428 29.8885 62.2713 26.5691 59.8299 24.1222C57.389 21.6746 54.0777 20.2998 50.625 20.2998H45.2299C42.8943 20.2992 40.5749 20.6759 38.3595 21.4165L31.026 23.8672L25.2403 21.4165C23.0391 20.6805 20.7337 20.3037 18.413 20.2998H13.0179C9.81712 20.3011 6.72855 21.4851 4.34319 23.625C1.95783 25.765 0.442304 28.7104 0.0865664 31.8997H3.91576e-05V51.1556C-0.00577233 53.1066 0.635442 55.004 1.8222 56.5497L5.43827 61.204L10.515 81.5038H10.5156C10.9056 83.0729 11.8084 84.4666 13.0798 85.4622C14.3506 86.4578 15.9178 86.9989 17.5309 86.9996H20.25C22.1679 86.9996 24.0074 86.2357 25.3642 84.8765C26.7202 83.5165 27.4821 81.6722 27.4821 79.7496V65.2497C27.4821 64.449 28.1298 63.7997 28.9285 63.7997H34.7142C35.0978 63.7997 35.4659 63.9525 35.7371 64.2244C36.0083 64.4962 36.1607 64.8652 36.1607 65.2497V79.7496C36.1607 81.6722 36.9226 83.5163 38.2786 84.8765C39.6352 86.2358 41.4749 86.9996 43.3928 86.9996H46.1119C47.7249 86.9989 49.292 86.4578 50.5629 85.4622C51.8344 84.4666 52.737 83.073 53.1271 81.5038L58.9128 58.2178C60.1371 58.9273 61.5415 59.2613 62.9526 59.1784C64.3641 59.0962 65.7201 58.601 66.8541 57.7537L72.3214 53.6503V82.6501C72.3214 84.2043 73.1486 85.6401 74.4911 86.4174C75.8335 87.1942 77.4879 87.1942 78.8304 86.4174C80.1728 85.64 81 84.2043 81 82.6501V27.5505C81 27.166 80.8476 26.797 80.5764 26.5251C80.3052 26.2533 79.9371 26.1005 79.5536 26.1005L79.5536 26.0997ZM70.1519 15.9498C69.5152 15.9498 67.9822 13.659 67.9822 9.42482C67.9822 5.19068 69.5152 2.89986 70.1519 2.89986C70.7886 2.89986 72.3215 5.19068 72.3215 9.42482C72.3215 13.659 70.7886 15.9498 70.1519 15.9498ZM50.3218 80.7933C50.0887 81.7365 49.5482 82.5741 48.7856 83.1735C48.0224 83.7722 47.0815 84.0985 46.1123 84.0991H43.3932C42.2425 84.0991 41.1382 83.6408 40.3248 82.8252C39.5113 82.0096 39.054 80.9026 39.054 79.7492V65.2493C39.054 64.0958 38.5968 62.9888 37.7832 62.1734C36.9696 61.3579 35.8653 60.8994 34.7148 60.8994H28.9291C27.7784 60.8994 26.6741 61.3577 25.8607 62.1734C25.0472 62.989 24.5899 64.096 24.5899 65.2493V79.7492C24.5899 80.9027 24.1327 82.0097 23.3191 82.8252C22.5055 83.6407 21.4012 84.0991 20.2507 84.0991H17.5316C16.5643 84.0991 15.6248 83.7755 14.8622 83.1793C14.0996 82.5824 13.5579 81.7481 13.3222 80.8076L9.76429 66.54C10.689 67.3291 11.8622 67.766 13.0769 67.7725C13.4165 67.7745 13.7562 67.7402 14.0893 67.6709C15.7166 67.3647 17.0933 66.2824 17.7776 64.7709C18.4699 63.2575 18.3885 61.5014 17.5607 60.0584L12.8166 51.7934L12.2955 39.1493H9.40263L9.95214 52.1992C9.94181 52.4523 10.0019 52.7035 10.1258 52.9242L15.0295 61.4934C15.4008 62.1207 15.4389 62.8916 15.1302 63.5526C14.8287 64.2161 14.2249 64.6919 13.5107 64.8284C12.6758 65.0039 11.8144 64.6821 11.2971 64.0025L4.06499 54.7225C3.29076 53.6965 2.87879 52.4413 2.89365 51.1552V33.3493C2.89365 30.6572 3.96038 28.0757 5.8594 26.1725C7.75777 24.2688 10.3329 23.1994 13.0186 23.1994H18.4137C20.3794 23.1981 22.3326 23.5114 24.1994 24.1277L36.5805 29.4202H36.5811C39.9324 31.0761 43.9095 30.8223 47.0238 28.7528L45.4328 26.3462C44.3111 27.0867 43.0138 27.5172 41.6727 27.5936C40.3315 27.6699 38.9943 27.3897 37.7958 26.7812L34.9894 25.5778L39.2273 24.1278H39.228C41.1632 23.4863 43.192 23.1724 45.2306 23.1996H50.6257C53.3112 23.1996 55.8863 24.2689 57.7849 26.1726C59.6839 28.0757 60.7506 30.6572 60.7506 33.3495V37.1921C60.7519 38.3754 60.606 39.5541 60.3167 40.7012L50.3218 80.7933ZM65.0895 55.4326C64.2934 56.0275 63.317 56.3304 62.3245 56.2909C61.332 56.2514 60.3834 55.8715 59.6363 55.2151L61.5315 47.8493L62.6163 48.951C63.0793 49.4177 63.798 49.5129 64.3662 49.1834L72.3216 44.5434V50.0242L65.0895 55.4326ZM78.1074 82.6493C78.1074 83.45 77.4597 84.0993 76.6609 84.0993C75.8622 84.0993 75.2145 83.45 75.2145 82.6493V28.9997H78.1074V82.6493Z" fill="#059BDF"/>
</svg>
