<svg width="48" height="93" viewBox="0 0 48 93" fill="none" xmlns="http://www.w3.org/2000/svg">
<path d="M41.5934 30.2338C39.9251 30.2338 38.2569 30.2338 36.5886 30.2338C36.4258 30.2338 36.2631 30.2338 36.1003 30.2338C36.1003 29.0131 36.1003 27.7924 36.1003 26.5717C36.1003 25.9614 36.1003 25.3511 36.1003 24.7407C36.1003 24.5373 35.9376 24.3745 35.7341 24.3745C34.6762 24.3745 33.659 24.3745 32.6011 24.3745C32.3976 24.3745 32.2349 24.5373 32.2349 24.7407C32.2349 26.409 32.2349 28.0772 32.2349 29.7455C32.2349 29.9082 32.2349 30.071 32.2349 30.2338C31.0142 30.2338 29.7935 30.2338 28.5728 30.2338C27.9625 30.2338 27.3522 30.2338 26.7418 30.2338C26.5384 30.2338 26.3756 30.3965 26.3756 30.6C26.3756 31.6579 26.3756 32.6751 26.3756 33.733C26.3756 33.8551 26.4163 33.9365 26.4977 33.9772C26.5384 34.0585 26.6604 34.0992 26.7825 34.0992C28.4508 34.0992 30.119 34.0992 31.7873 34.0992C31.95 34.0992 32.1128 34.0992 32.2755 34.0992C32.2755 35.3199 32.2755 36.5406 32.2755 37.7613C32.2755 38.3716 32.2755 38.9819 32.2755 39.5923C32.2755 39.7957 32.4383 39.9585 32.6417 39.9585C33.6997 39.9585 34.7169 39.9585 35.7748 39.9585C35.8969 39.9585 35.9783 39.9178 36.0596 39.8364C36.141 39.7957 36.1817 39.6736 36.1817 39.5516C36.1817 37.8833 36.1817 36.2151 36.1817 34.5468C36.1817 34.3841 36.1817 34.2213 36.1817 34.0585C37.4024 34.0585 38.6231 34.0585 39.8437 34.0585C40.4541 34.0585 41.0644 34.0585 41.6747 34.0585C41.8782 34.0585 42.041 33.8958 42.041 33.6923C42.041 32.6344 42.041 31.6172 42.041 30.5593C41.9596 30.3965 41.7968 30.2338 41.5934 30.2338Z" fill="#134F91"/>
<path d="M47.9002 24.3339C47.9002 22.9911 48.063 21.567 47.9002 20.265C47.6561 18.2712 44.0754 17.254 42.5699 16.6029C37.8907 14.5685 32.8452 13.063 27.7591 12.4119C27.7591 12.3306 27.7998 12.2492 27.7998 12.1678C27.7998 12.1271 27.7998 12.1271 27.7998 12.0864C27.7998 12.0457 27.7998 12.0457 27.7998 12.0051C27.637 10.3775 26.2129 9.44163 24.5446 9.1975C24.4632 7.52924 24.3819 5.7796 24.5853 4.19272C25.0736 0.774832 31.299 1.46655 30.8515 5.08789C30.6887 6.30856 32.6011 6.26787 32.7638 5.08789C33.3335 0.36794 26.7012 -1.58514 23.8122 1.46655C22.9171 2.44309 22.7136 3.66377 22.7136 4.92513C22.7136 6.34925 22.7136 7.73269 22.7136 9.15681C21.0047 9.44163 19.5399 10.4182 19.4992 12.0864C16.3661 12.2899 13.2737 12.8595 10.3034 13.8768C6.92621 15.0161 3.79314 16.725 0.904204 18.8408C0.863515 18.8815 0.782137 18.9222 0.741448 18.9629C0.334556 19.207 0.0904204 19.6546 0.0904204 20.265C0.0904204 33.4076 0.0904204 46.5909 0.0904204 59.7335C0.0904204 65.552 -0.113026 71.4113 0.0904204 77.1891C0.0904204 77.3519 0.0904204 77.5147 0.0904204 77.6367V77.6774C0.00904204 78.4505 -0.0316472 79.1015 0.171799 79.9153C0.904204 83.2518 4.07796 85.2863 7.04827 86.4663C10.9137 88.0125 15.2268 88.7042 19.5399 88.8669C19.4585 89.5993 19.6212 90.4131 20.0281 91.0642C21.086 92.7731 23.3646 92.6104 25.1143 92.6104C27.1487 92.4883 28.288 90.4131 27.9218 88.5821C28.4101 88.5414 28.8984 88.5007 29.3866 88.4194C34.7983 87.809 41.3086 86.7918 45.8658 83.496C47.6154 82.2346 47.9816 81.0546 47.9816 79.1015C47.9816 76.6195 47.9816 74.1375 47.9816 71.6554C47.9002 55.868 47.9002 40.1213 47.9002 24.3339ZM44.3196 80.485C43.1396 81.5836 41.3493 82.2346 39.8438 82.7636C34.4728 84.676 28.6949 85.4491 23.0391 85.4897C17.6682 85.5304 11.3613 85.2456 6.51931 82.5601C5.46139 81.9905 4.44416 81.2581 3.79314 80.2001C3.42693 79.6305 3.30487 78.9795 3.26418 78.654C3.26418 78.5319 3.26418 78.4098 3.26418 78.3284C3.26418 78.2471 3.30487 78.2064 3.30487 78.125C3.34556 77.7588 3.34556 77.474 3.34556 77.1078C3.38625 75.6023 3.34556 74.0561 3.34556 72.5506C3.34556 66.5693 3.34556 60.588 3.34556 54.566C3.34556 43.4171 3.58969 32.2276 3.34556 21.0381C15.4709 12.7781 32.1128 14.0802 44.6044 21.2008C44.6044 30.3152 44.6044 39.4296 44.6044 48.544C44.6044 55.3797 44.6044 62.2155 44.6044 69.0513C44.6044 71.4927 44.6044 73.9747 44.6044 76.4161C44.6044 77.6367 44.4416 78.9795 44.6044 80.2001C44.523 80.2408 44.4416 80.3222 44.3196 80.485ZM44.6044 80.5663C44.523 80.4036 44.5637 80.2815 44.6044 80.1595C44.6044 80.2001 44.6044 80.2408 44.6044 80.2815C44.6044 80.3629 44.5637 80.5257 44.6044 80.5663ZM44.6044 80.1595C44.6451 80.0374 44.7265 79.9967 44.6044 80.1595V80.1595Z" fill="#134F91"/>
<path d="M9.97787 26.9378H28.2066C28.6135 26.9378 28.9797 26.6123 28.9797 26.1647C28.9797 25.7578 28.6542 25.3916 28.2066 25.3916H9.97787C9.57098 25.3916 9.20477 25.7171 9.20477 26.1647C9.24546 26.6123 9.57098 26.9378 9.97787 26.9378Z" fill="#134F91"/>
<path d="M9.97787 31.7801H19.3364C19.7433 31.7801 20.1095 31.4546 20.1095 31.007C20.1095 30.6001 19.784 30.2339 19.3364 30.2339H9.97787C9.57098 30.2339 9.20477 30.5594 9.20477 31.007C9.24546 31.4546 9.57098 31.7801 9.97787 31.7801Z" fill="#134F91"/>
<path d="M9.97787 36.7034H19.3364C19.7433 36.7034 20.1095 36.3779 20.1095 35.9303C20.1095 35.4827 19.784 35.1572 19.3364 35.1572H9.97787C9.57098 35.1572 9.20477 35.4827 9.20477 35.9303C9.20477 36.3779 9.57098 36.7034 9.97787 36.7034Z" fill="#134F91"/>
<path d="M41.4307 43.0509C39.8031 44.2309 38.0128 45.2074 35.9783 45.4109C34.3914 45.5736 32.8046 45.2074 31.3397 44.6784C27.8812 43.4578 24.626 41.6674 21.0454 40.7316C16.0406 39.4295 10.5069 40.3654 6.92623 44.3122C6.68209 44.5564 6.39727 44.8412 6.31589 45.1667C6.03106 46.0212 6.15313 47.2012 6.11244 48.0963C6.11244 48.1777 6.15313 48.2184 6.19382 48.2591C6.15313 48.2998 6.11244 48.3405 6.11244 48.3812C6.03106 52.328 5.99037 56.3156 5.909 60.2624C5.909 62.0934 5.909 63.9651 5.909 65.7961C5.909 65.7961 5.909 65.7961 5.909 65.8368C5.909 65.8368 5.909 65.8368 5.909 65.8775C5.909 66.6913 5.909 67.4644 5.909 68.2782C5.909 69.8244 5.909 71.3706 5.909 72.8761C5.909 73.283 5.909 73.6898 5.909 74.0967C5.909 74.6257 5.909 75.1547 5.909 75.6429C5.909 75.8057 5.909 75.8871 5.909 75.9278C5.909 75.8057 5.909 75.0733 5.909 74.0967C5.909 74.3409 5.94969 74.585 5.99037 74.8291C6.76347 78.247 10.2627 80.3222 13.3551 81.3394C16.773 82.4787 20.5978 82.6415 24.1784 82.6822C27.0674 82.7228 29.9563 82.6008 32.8046 82.1125C34.7169 81.787 36.7107 81.3801 38.4604 80.5256C40.21 79.6712 41.6341 78.2063 41.7155 76.1719C41.7969 74.5036 41.7155 72.8354 41.7155 71.2078C41.9189 70.5161 41.7155 69.4989 41.7155 68.9292C41.7155 68.8071 41.7155 68.6444 41.7155 68.5223C41.7155 68.1154 41.7155 67.7085 41.7155 67.3016C41.7155 64.1686 41.7155 60.9948 41.7155 57.8617C41.7969 56.6004 41.8376 55.3797 41.9189 54.1183V54.0776C41.9189 50.4563 41.9189 46.835 41.9189 43.2136C41.9596 42.8881 41.5934 42.9288 41.4307 43.0509ZM9.97792 65.4299H19.3364C19.7433 65.4299 20.1095 65.7554 20.1095 66.203C20.1095 66.6099 19.784 66.9761 19.3364 66.9761H9.97792C9.57102 66.9761 9.20482 66.6506 9.20482 66.203C9.24551 65.7554 9.57102 65.4299 9.97792 65.4299ZM9.24551 60.71C9.24551 60.3031 9.57102 59.9369 10.0186 59.9369H19.3771C19.784 59.9369 20.1502 60.2624 20.1502 60.71C20.1502 61.1169 19.8247 61.4831 19.3771 61.4831H10.0186C9.57102 61.4424 9.24551 61.1169 9.24551 60.71ZM28.2067 73.8526H9.97792C9.57102 73.8526 9.20482 73.5271 9.20482 73.0795C9.20482 72.6726 9.53033 72.3064 9.97792 72.3064H28.2067C28.6136 72.3064 28.9798 72.6319 28.9798 73.0795C28.9798 73.5271 28.6136 73.8526 28.2067 73.8526ZM28.2067 53.9149H9.97792C9.57102 53.9149 9.20482 53.5894 9.20482 53.1418C9.20482 52.7349 9.53033 52.3687 9.97792 52.3687H28.2067C28.6136 52.3687 28.9798 52.6942 28.9798 53.1418C28.9798 53.5894 28.6136 53.9149 28.2067 53.9149ZM41.7562 71.1671C41.7562 72.3878 41.7562 73.6085 41.7562 71.1671V71.1671Z" fill="#134F91"/>
</svg>
