<svg width="70" height="91" viewBox="0 0 70 91" fill="none" xmlns="http://www.w3.org/2000/svg">
<path d="M70 43.5248L65.0926 25.2448C49.7308 27.0379 34.1779 31.5216 31.3013 35.538C31.3013 37.8777 28.3553 39.852 24.425 39.4567C20.4947 39.0621 20.1011 31.1658 19.7051 29.3913C19.3155 27.6168 24.62 23.8647 27.173 25.987C36.3506 22.2819 52.8003 17.9865 62.4932 15.5959L58.3028 0C58.3028 0 22.4881 12.1915 13.0548 18.381C13.0548 18.381 -0.305066 19.6559 0.480627 37.1138C0.480627 37.1138 -0.576217 62.5602 0.444406 90.9993H8.8645C8.55461 87.7178 8.81379 81.3503 9.2428 74.8349L17.2912 76.7113C17.0529 84.2016 16.9885 91 16.9885 91H22.5562C23.0319 86.5018 23.122 82.123 22.9964 78.034L25.362 78.5846C25.4626 82.5177 25.3652 86.7046 24.9257 91H32.4008C32.4008 91 37.157 62.5609 32.4008 46.6163C32.4 46.6163 57.4223 45.9793 70 43.5232L70 43.5248ZM15.1086 25.0208C15.0909 27.1762 15.5883 31.7108 13.1647 33.9849C11.1493 35.8719 7.91111 37.5996 7.68012 36.9002C3.87611 25.227 15.1271 22.8622 15.1086 25.0208ZM22.4219 69.6922C21.737 63.2051 20.6624 58.2251 20.1287 56.0197C19.4615 57.0885 18.8232 57.7401 18.8232 57.7401C18.3185 59.0837 17.9507 62.9951 17.6802 67.6711L10.0392 64.4041C10.5262 58.7101 10.9584 54.4295 10.9584 54.4295C9.91285 54.2807 9.12324 52.2093 8.07363 48.7905C7.02806 45.3675 9.64963 39.3121 11.7447 41.6049C13.8432 43.8904 20.3919 47.4758 20.3919 47.4758C21.452 49.1089 21.6975 50.7211 21.5389 52.1665C21.7989 53.021 22.0041 53.8505 22.0766 54.1116C22.1088 54.224 23.9665 61.0005 24.893 70.7578L22.4219 69.6922Z" fill="#059BDF"/>
</svg>
