<svg width="89" height="57" viewBox="0 0 89 57" fill="none" xmlns="http://www.w3.org/2000/svg">
<path d="M42.0171 50C40.9601 50 39.9031 49.9592 38.8631 49.898C24.3544 48.8377 10.6977 40.4976 0.434757 26.3866C-0.144919 25.5914 -0.144919 24.4291 0.434757 23.6337C10.6983 9.52281 24.3541 1.18317 38.8631 0.122348C40.9601 -0.0407828 43.0743 -0.0407828 45.1883 0.122348C59.6629 1.1827 73.3023 9.52281 83.5652 23.6337C84.1449 24.429 84.1449 25.5913 83.5652 26.3866C81.2807 29.5473 78.7574 32.4633 76.0467 35.0938C75.2965 35.8278 74.1883 35.6851 73.5916 34.7879C72.9778 33.8907 73.0972 32.5652 73.8473 31.8515C75.9955 29.7511 78.0244 27.4673 79.8997 25.0203C70.3864 12.602 58.0255 5.26189 44.9661 4.30361C43.0055 4.16087 41.0449 4.16087 39.0843 4.30361C25.9906 5.262 13.6295 12.5825 4.11635 25.0203C13.6297 37.4386 25.9906 44.7788 39.0843 45.7371C41.0449 45.8594 43.0226 45.8594 44.9833 45.7371C51.479 45.2477 57.8383 43.2289 63.6698 39.7624C64.5393 39.2322 65.5793 39.6604 66.0226 40.68C66.4659 41.6995 66.1079 42.9638 65.2554 43.494C65.2384 43.494 65.2384 43.5144 65.2213 43.5144C58.9642 47.2256 52.1618 49.4075 45.2051 49.9174C44.1311 49.9582 43.074 49.9989 42.017 49.9989L42.0171 50Z" fill="#059BDF"/>
<path d="M40.5 50.655C26.5194 50.655 15.1829 39.3189 15.1829 25.3378C15.1829 11.3567 26.519 0 40.5 0C54.4811 0 65.8172 11.3361 65.8172 25.3172C65.8172 39.2982 54.4811 50.6344 40.5 50.655ZM40.5 4.20391C28.8359 4.20391 19.3849 13.6542 19.3849 25.3191C19.3849 36.9839 28.8352 46.4342 40.5 46.4342C52.1649 46.4342 61.6152 36.9839 61.6152 25.3191C61.5947 13.6754 52.1649 4.22453 40.5 4.20391Z" fill="#059BDF"/>
<path d="M40.5 38.0057C33.4893 37.9237 27.8724 32.1634 27.9749 25.1526C28.0569 18.2648 33.6122 12.7093 40.5 12.6274C41.5865 12.6274 42.673 12.7709 43.7185 13.0579C44.8254 13.3859 45.4609 14.5749 45.1329 15.6819C44.805 16.7478 43.698 17.3833 42.6115 17.1168C41.9145 16.9323 41.2176 16.8298 40.5 16.8298C35.8056 16.8298 32.0133 20.6222 32.0133 25.3166C32.0133 30.011 35.8056 33.8033 40.5 33.8033C45.1944 33.8033 48.9868 30.011 48.9868 25.3166C48.9868 24.4556 48.8638 23.6151 48.5973 22.7952C48.2488 21.6882 48.8638 20.4992 49.9707 20.1508C51.0777 19.8024 52.2667 20.4173 52.6151 21.5243C54.706 28.207 50.9956 35.3203 44.3128 37.4114C43.0828 37.8214 41.7914 38.0059 40.4998 38.0059L40.5 38.0057Z" fill="#059BDF"/>
<path d="M48.1263 24.8862C43.965 24.8862 40.5825 21.5038 40.5825 17.3424C40.5825 13.181 43.965 9.79858 48.1263 9.79858C52.2877 9.79858 55.6701 13.181 55.6701 17.3424C55.6701 21.5038 52.2877 24.8658 48.1263 24.8862ZM48.1263 14.001C46.2814 14.001 44.7849 15.4975 44.7849 17.3424C44.7849 19.1873 46.2814 20.6838 48.1263 20.6838C49.9712 20.6838 51.4677 19.1873 51.4677 17.3424C51.4677 15.4975 49.9712 14.001 48.1263 14.001Z" fill="#059BDF"/>
<path d="M75.8704 56.497C68.9622 56.497 63.3657 50.9007 63.3657 43.9923C63.3657 37.0838 68.962 31.4875 75.8704 31.4875C82.7789 31.4875 88.3752 37.0838 88.3752 43.9923C88.3547 50.8801 82.7583 56.4764 75.8704 56.497ZM75.8704 35.6705C71.2786 35.6705 67.5681 39.3809 67.5681 43.9728C67.5681 48.5647 71.2786 52.2751 75.8704 52.2751C80.4623 52.2751 84.1727 48.5647 84.1727 43.9728C84.1727 39.4013 80.4419 35.6705 75.8704 35.6705Z" fill="#059BDF"/>
<path d="M79.5608 46.0838H72.181C71.0125 46.0838 70.0695 45.1408 70.0695 43.9929C70.0695 42.8449 71.0124 41.8813 72.1603 41.8813H79.5402C80.7086 41.8813 81.6517 42.8243 81.6517 43.9722C81.6517 45.1202 80.7292 46.0838 79.5608 46.0838Z" fill="#059BDF"/>
<path d="M75.8704 49.7722C74.702 49.7722 73.7589 48.8292 73.7589 47.6813V40.3015C73.7589 39.133 74.7019 38.1899 75.8498 38.1899C76.9977 38.1899 77.9613 39.1329 77.9613 40.2808V47.6606C77.9613 48.8291 77.0184 49.7722 75.8704 49.7722Z" fill="#059BDF"/>
</svg>
