<svg width="84" height="50" viewBox="0 0 84 50" fill="none" xmlns="http://www.w3.org/2000/svg">
<path d="M42.0171 50C40.9601 50 39.9031 49.9592 38.8631 49.898C24.3544 48.8377 10.6977 40.4976 0.434757 26.3866C-0.144919 25.5914 -0.144919 24.4291 0.434757 23.6337C10.6983 9.52281 24.3541 1.18317 38.8631 0.122348C40.9601 -0.0407828 43.0743 -0.0407828 45.1883 0.122348C59.6629 1.1827 73.3023 9.52281 83.5652 23.6337C84.1449 24.429 84.1449 25.5913 83.5652 26.3866C81.2807 29.5473 78.7574 32.4633 76.0467 35.0938C75.2965 35.8278 74.1883 35.6851 73.5916 34.7879C72.9778 33.8907 73.0972 32.5652 73.8473 31.8515C75.9955 29.7511 78.0244 27.4673 79.8997 25.0203C70.3864 12.602 58.0255 5.26189 44.9661 4.30361C43.0055 4.16087 41.0449 4.16087 39.0843 4.30361C25.9906 5.262 13.6295 12.5825 4.11635 25.0203C13.6297 37.4386 25.9906 44.7788 39.0843 45.7371C41.0449 45.8594 43.0226 45.8594 44.9833 45.7371C51.479 45.2477 57.8383 43.2289 63.6698 39.7624C64.5393 39.2322 65.5793 39.6604 66.0226 40.68C66.4659 41.6995 66.1079 42.9638 65.2554 43.494C65.2384 43.494 65.2384 43.5144 65.2213 43.5144C58.9642 47.2256 52.1618 49.4075 45.2051 49.9174C44.1311 49.9582 43.074 49.9989 42.017 49.9989L42.0171 50Z" fill="#059BDF"/>
</svg>
