<svg width="51" height="89" viewBox="0 0 51 89" fill="none" xmlns="http://www.w3.org/2000/svg">
<path d="M46.7487 76.3206V40.6479L44.5758 38.2167C45.9689 36.8292 46.7502 34.9485 46.7487 32.9887C46.7473 31.0281 45.9632 29.1488 44.5687 27.764C43.1734 26.3786 41.2823 25.6011 39.3115 25.6024C39.0425 25.6144 38.7743 25.6413 38.5089 25.683L41.8587 16.5413L38.8142 15.4375L43.4652 2.74817L35.8779 0L31.2276 12.6872L27.8836 11.4745L16.637 42.1641L6.92717 38.8004L5.69912 42.3057L2.7464 45.2414L5.75176 48.2294L9.74961 44.2536L11.3647 44.8133L7.66503 54.0122L13.5832 56.3648L17.3904 46.9005L19.1243 47.5012V53.0753H23.374V48.9856L27.6238 50.5267V53.0752H33.9988V63.6412H6.375V67.8674H27.6238V76.3206H0V89H51V76.3206L46.7487 76.3206ZM42.499 32.9986C42.499 33.8399 42.1631 34.6458 41.5655 35.2402C40.9678 35.8345 40.1567 36.1685 39.3115 36.1685C38.4662 36.1685 37.6551 35.8345 37.0575 35.2402C36.4598 34.6458 36.124 33.8399 36.124 32.9986C36.124 32.1581 36.4598 31.3521 37.0575 30.7571C37.6551 30.1627 38.4662 29.8288 39.3115 29.8288C40.1567 29.8302 40.9671 30.1642 41.564 30.7585C42.1617 31.3528 42.4982 32.1588 42.4989 32.9986L42.499 32.9986ZM24.0734 44.739L24.0642 44.7355L20.6681 43.5043L30.0749 17.8412L36.065 20.0112L26.6582 45.6762L24.0734 44.739ZM46.7484 84.7734H4.24897V80.5464H36.124V76.3202H31.8742V67.867H38.2492V48.8479H31.8742V43.7874L33.9561 38.1064C35.6836 39.9341 38.2372 40.7456 40.7103 40.2545L42.499 42.2555V80.5455H46.7488L46.7484 84.7734Z" fill="#059BDF"/>
</svg>
