<svg width="78" height="82" viewBox="0 0 78 82" fill="none" xmlns="http://www.w3.org/2000/svg">
<path d="M25.4796 82C20.7571 82 16.0347 82 11.3122 82C9.35275 82 8.09107 80.2773 8.66905 78.3766C9.3457 76.1414 10.0999 73.9346 10.6708 71.6709C11.6083 67.9407 11.2488 64.3387 9.33865 60.9431C6.64614 56.1736 4.33425 51.2048 2.21266 46.1506C1.3739 44.1502 0.94394 42.036 0.584469 39.9075C0.0981257 36.9889 -0.0921826 34.0418 0.041738 31.0875C0.267289 26.3323 1.27522 21.7621 3.41795 17.4981C5.9272 12.5079 9.59944 8.59978 14.2796 5.63131C17.092 3.85165 20.0664 2.42792 23.2453 1.48826C25.5008 0.819111 27.8479 0.555722 30.1809 0.30657C32.81 0.0289428 35.4532 -0.0635994 38.0964 0.0431801C42.7131 0.221146 47.2171 0.989958 51.5378 2.70555C55.2805 4.18622 58.6215 6.29334 61.4831 9.16215C64.7466 12.4296 67.0021 16.3306 68.4963 20.6943C69.6805 24.154 70.3289 27.7204 70.6532 31.3652C70.8012 33.0665 70.8082 34.7536 70.3712 36.4123C70.3219 36.6116 70.4347 36.7255 70.5263 36.8536C72.0488 39.0035 73.6206 41.1177 75.1007 43.3031C75.9325 44.5275 76.7924 45.7377 77.3703 47.1045C78.2725 49.2685 78.2866 51.4041 76.877 53.3902C76.1087 54.4722 75.0021 55.1414 73.7827 55.5899C73.4232 55.7251 73.3175 55.8533 73.395 56.259C73.6488 57.6187 73.2963 58.8716 72.5915 60.0248C72.4646 60.2383 72.4082 60.4305 72.4435 60.6868C72.6267 61.9468 72.4364 63.1427 71.8162 64.2604C71.7175 64.4383 71.7316 64.5878 71.788 64.7658C72.1827 65.9902 72.4364 67.2431 72.4364 68.5315C72.4364 70.9092 71.5836 72.9095 69.8285 74.5254C68.3695 75.8709 66.6074 76.4759 64.7184 76.7963C61.8778 77.2803 59.0162 77.2875 56.1474 77.1736C51.6717 76.9956 47.2311 76.4617 42.8047 75.7997C42.5087 75.757 42.403 75.7854 42.41 76.1342C42.4382 77.1665 42.4241 78.1986 42.4171 79.2309C42.41 80.8112 41.24 82 39.6752 82C34.9457 82 30.2162 82 25.4796 82ZM25.9307 76.5685C29.5043 76.5685 33.0708 76.5614 36.6444 76.5756C36.9616 76.5756 37.032 76.4902 37.032 76.1841C37.0109 74.9882 37.0109 73.7851 37.025 72.5892C37.0461 70.8665 38.4911 69.5851 40.1334 69.8556C41.973 70.1617 43.8127 70.4678 45.6664 70.7027C50.5933 71.3363 55.5342 71.8417 60.5175 71.7563C61.8778 71.7349 63.2452 71.6566 64.5704 71.322C66.2267 70.902 67.4673 69.699 66.9527 67.5349C66.7413 66.6309 66.3959 65.7695 66.1774 64.8726C65.8884 63.698 66.0646 62.6373 66.9668 61.7688C67.1289 61.6122 67.143 61.4485 67.0866 61.2492C66.988 60.8719 66.8611 60.4946 66.7977 60.1102C66.6215 59.0709 66.8681 58.1312 67.6787 57.4407C67.9748 57.1844 67.9748 57.0065 67.8549 56.679C66.7624 53.6322 68.7289 51.219 70.9563 50.7848C71.358 50.7065 71.7598 50.5997 72.1333 50.4146C72.521 50.2295 72.6056 50.0516 72.5563 49.6245C72.514 49.2685 72.3307 48.9767 72.1545 48.6848C70.773 46.4211 69.1941 44.2926 67.6646 42.1357C66.7695 40.8757 65.8038 39.6584 65.0285 38.3129C64.4717 37.3448 64.4576 36.3269 64.951 35.3516C65.2259 34.7963 65.3245 34.2411 65.3598 33.6502C65.4021 32.974 65.3316 32.2977 65.2752 31.6286C64.9157 27.5638 64.077 23.613 62.3783 19.8899C60.1369 14.9781 56.669 11.2479 51.869 8.80622C48.0558 6.86995 43.9748 5.95165 39.7527 5.60995C36.2849 5.33232 32.8312 5.45334 29.3845 5.8947C27.0232 6.2008 24.6831 6.57808 22.4488 7.51774C18.7624 9.07673 15.3721 11.0842 12.5386 13.9672C9.3457 17.2133 7.28755 21.1001 6.23733 25.535C5.25055 29.6923 5.17301 33.8923 5.76508 38.1136C6.03293 40.0428 6.3642 41.9648 7.11134 43.7729C9.10605 48.5994 11.277 53.3475 13.8638 57.8821C16.3237 62.1888 17.0638 66.759 16.2391 71.6282C15.9783 73.18 15.4285 74.6464 14.9915 76.1414C14.8717 76.5542 14.8646 76.5542 15.3087 76.5542C18.8329 76.5685 22.3853 76.5685 25.9307 76.5685Z" fill="#059BDF"/>
<path d="M22.0285 30.5698C22.0285 29.3196 22.0285 28.0693 22.0285 26.8191C22.0285 26.2333 21.9929 26.3333 22.5281 26.3333C24.9544 26.3261 27.3807 26.3261 29.807 26.3404C30.1281 26.3404 30.1781 26.2404 30.2066 25.9404C30.2708 25.2759 30.071 24.8687 29.493 24.4686C27.6804 23.1898 26.9811 20.9322 27.6019 18.7532C28.1871 16.71 30.0782 15.1811 32.219 15.0168C34.7167 14.8239 36.9432 16.3099 37.7139 18.6818C38.4632 21.0037 37.5284 23.5042 35.3946 24.8044C35.2091 24.9187 35.1235 25.0402 35.1449 25.2545C35.1734 25.5974 35.0093 26.0332 35.2091 26.2547C35.416 26.4833 35.8585 26.3261 36.201 26.3261C38.4489 26.3333 40.6968 26.3333 42.9447 26.3261C43.2373 26.3261 43.3229 26.3976 43.3229 26.6976C43.3087 29.1981 43.3229 31.6986 43.3087 34.1991C43.3087 34.5063 43.3729 34.6206 43.7012 34.5992C44.1151 34.5706 44.5575 34.6778 44.9429 34.5635C45.3282 34.4492 45.4281 33.9562 45.685 33.6562C47.1836 31.8701 49.6884 31.2843 51.8364 32.2273C53.9773 33.1703 55.2618 35.4351 54.9549 37.7284C54.6552 40.0003 53.0424 41.772 50.8374 42.2579C48.668 42.7365 46.4914 41.8292 45.264 39.9074C45.0927 39.6359 44.9143 39.5359 44.6075 39.5573C44.2792 39.5859 43.9438 39.5716 43.6084 39.5573C43.3729 39.543 43.3015 39.6216 43.3015 39.8645C43.3158 41.0219 43.3087 42.1721 43.3087 43.3295C43.3087 44.6512 43.3015 45.9729 43.3158 47.2946C43.3158 47.5875 43.2516 47.6804 42.9447 47.6732C40.4685 47.6589 37.9993 47.6732 35.5231 47.6589C35.2376 47.6589 35.1591 47.7232 35.1306 48.0233C35.0664 48.6877 35.259 49.1092 35.8514 49.5307C37.8423 50.9596 38.4917 53.5529 37.5212 55.8177C36.5864 58.0181 34.21 59.3184 31.8622 58.9326C29.6357 58.5682 27.9444 56.9679 27.4806 54.7889C27.0239 52.6313 27.9373 50.4738 29.8569 49.2449C30.1139 49.0806 30.1995 48.9163 30.1923 48.6162C30.1781 47.6589 30.1852 47.6589 29.2218 47.6589C26.9525 47.6589 24.6832 47.6518 22.4068 47.6661C22.1285 47.6661 22.0143 47.6161 22.0143 47.3017C22.0285 44.7083 22.0285 42.115 22.0143 39.5145C22.0143 39.2001 22.1285 39.1715 22.3996 39.143C23.206 39.0715 23.7698 39.243 24.3264 39.9788C25.5324 41.5791 27.7304 42.0221 29.5858 41.2362C31.4055 40.4646 32.5402 38.55 32.3546 36.5496C32.1762 34.5849 30.6776 32.8989 28.7366 32.4774C26.8669 32.0773 24.9401 32.8631 23.9196 34.492C23.7484 34.7635 23.57 34.8635 23.2631 34.835C22.9777 34.8135 22.6922 34.8064 22.4068 34.835C22.0571 34.8778 22 34.7278 22 34.4135C22.0428 33.1418 22.0285 31.8558 22.0285 30.5698Z" fill="#059BDF"/>
</svg>
