<svg width="81" height="90" viewBox="0 0 81 90" fill="none" xmlns="http://www.w3.org/2000/svg">
<path d="M77.4314 45H3.56864L0 48.5687V86.4313L3.56864 90H77.4314L81 86.4313V48.5687L77.4314 45ZM76.5002 84.5694L75.5683 85.5006H5.43164L4.49975 84.5694V50.431L5.43164 49.4991H75.5683L76.4995 50.4302L76.5002 84.5694Z" fill="#059BDF"/>
<path d="M27.4121 39.5881C31.9963 39.0071 38.2725 38.211 38.2725 31.6883V30.7831L37.6625 30.1271C36.2701 28.1894 35.106 26.0918 34.1947 23.8784L34.0411 23.5254L33.7809 23.2452C32.0701 21.3946 31.8412 19.7069 32.3729 18.8539L33.0276 17.7994L32.5019 16.6685C31.6398 14.2497 31.6756 11.5956 32.6018 9.20262C32.8927 8.31862 33.5243 7.59218 34.3528 7.19071L35.8742 6.67258V4.9667C39.2241 4.02134 42.8134 4.60537 45.7053 6.56653C48.434 8.68819 49.3178 12.2652 48.3288 17.1995L48.1573 18.0592L48.6025 18.8107C49.1148 19.6795 49.0194 21.299 47.2214 23.2541L46.9589 23.5435L46.8075 23.8942C45.8977 26.1084 44.7336 28.2058 43.3398 30.1429L42.7275 30.783V31.6882C42.7275 38.211 49.0037 39.0071 53.5879 39.588C58.8082 40.2516 60.5457 40.8371 60.5457 42.9998H65C65 36.477 58.7238 35.681 54.1396 35.1C49.5555 34.5182 47.6471 33.994 47.2594 32.401H47.2601C48.6032 30.3967 49.7635 28.2727 50.7278 26.0546C51.8674 24.9601 52.6728 23.5556 53.0465 22.0081C53.4208 20.4613 53.3477 18.8372 52.8369 17.3314C54.1956 9.39274 51.2112 5.15096 48.4131 2.97693L48.4138 2.97618C43.794 -0.321996 37.8124 -0.922562 32.6465 1.393L31.419 2.01946V3.67306C30.1035 4.61388 29.0893 5.92582 28.5017 7.44692C27.2257 10.6724 27.0684 14.2424 28.0557 17.5708C27.6165 19.054 27.5896 20.6318 27.9797 22.1295C28.369 23.6278 29.1594 24.9859 30.2632 26.0548C31.2267 28.2728 32.3878 30.3968 33.7316 32.4012C33.3439 33.9851 31.4466 34.5168 26.8514 35.1001C22.2562 35.6834 16 36.478 16 43H20.4543C20.4543 40.8374 22.1919 40.2518 27.4121 39.5882L27.4121 39.5881Z" fill="#059BDF"/>
<path d="M46.1367 60.8708C47.373 60.8723 48.5979 60.6284 49.7362 60.1532C50.9656 59.6913 52.0279 58.8802 52.7871 57.823C53.5465 56.765 53.9684 55.5092 54 54.2146H49.5003C49.4054 55.0776 48.8057 55.8071 47.968 56.0785C46.2083 56.7235 44.2359 56.4284 42.7504 55.2992V52H38.2499V55.2992C36.7644 56.4284 34.7921 56.7227 33.0323 56.0785C32.1945 55.8071 31.5949 55.0776 31.5 54.2146H27.0003C27.0327 55.5105 27.4568 56.7672 28.2177 57.8251C28.9793 58.8823 30.0438 59.6934 31.2754 60.1532C33.5008 61.0614 35.9936 61.1044 38.2498 60.2725V64.1567C36.7635 65.2844 34.7919 65.5787 33.0321 64.9359C32.1944 64.6638 31.5948 63.9351 31.4998 63.0713H27.0002C27.0326 64.3673 27.4567 65.6247 28.2176 66.6818C28.9792 67.7398 30.0436 68.5502 31.2752 69.0106C33.5006 69.9189 35.9934 69.9611 38.2496 69.13V73.0134C36.7633 74.1418 34.7918 74.4362 33.032 73.7934C32.1942 73.5213 31.5946 72.7925 31.4997 71.9288H27C27.0324 73.2247 27.4565 74.4814 28.2174 75.5393C28.979 76.5973 30.0435 77.4076 31.2751 77.8674C33.5004 78.7756 35.9933 78.8186 38.2495 77.9875V83H42.7491L42.7499 77.9653C43.8294 78.3626 44.9716 78.5725 46.1248 78.5851C47.3611 78.5865 48.586 78.3426 49.7243 77.8674C50.956 77.4077 52.0204 76.5974 52.782 75.5393C53.5428 74.4814 53.967 73.2248 53.9994 71.9288H49.4997C49.4048 72.7926 48.8051 73.5213 47.9674 73.7934C46.2076 74.437 44.2353 74.1419 42.7497 73.0135V69.1078C43.8293 69.5052 44.9714 69.715 46.1247 69.7276C47.3609 69.7299 48.5859 69.486 49.7241 69.0107C50.9558 68.5503 52.0202 67.74 52.7818 66.6819C53.5427 65.6247 53.9668 64.3673 53.9992 63.0714H49.4995C49.4046 63.9351 48.805 64.6639 47.9673 64.936C46.2075 65.5795 44.2351 65.2852 42.7496 64.1568V60.2504C43.8329 60.6493 44.9788 60.8591 46.1359 60.8709L46.1367 60.8708Z" fill="#059BDF"/>
<path d="M16 52H20V65H16V52Z" fill="#059BDF"/>
<path d="M11 80.5689L15.6198 67L20 68.4311L15.3802 82L11 80.5689Z" fill="#059BDF"/>
<path d="M61 52H65V65H61V52Z" fill="#059BDF"/>
<path d="M61 68.4303L65.3813 67L70 80.5697L65.6187 82L61 68.4303Z" fill="#059BDF"/>
</svg>
