<svg width="73" height="88" viewBox="0 0 73 88" fill="none" xmlns="http://www.w3.org/2000/svg">
<path d="M65.0095 22.7741C63.4876 21.458 61.645 20.5723 59.6867 19.9935C60.9069 19.1325 61.9737 18.0599 62.7667 16.7413C63.8745 14.8929 60.9923 13.2176 59.8844 15.0603C58.8725 16.7471 57.2243 17.8599 55.3841 18.488C56.4402 16.3299 56.6921 13.7738 56.0975 11.3581C55.5817 9.26857 52.3902 9.88535 52.9052 11.9748C53.5415 14.5554 52.7518 17.4377 50.6124 19.0227C50.2589 19.1571 49.9704 19.2752 49.9269 19.2859C45.5776 20.7062 42.2344 24.0411 41.1707 28.0862C40.2055 31.7443 40.5647 37.6729 47.7496 45.1414C52.0744 49.6417 54.0924 54.7119 53.2888 59.0612C53.0174 60.5339 52.4196 61.8254 51.5939 62.8816C48.9749 59.7058 43.2109 59.2671 36.5032 59.2671C29.7955 59.2671 24.0309 59.7058 21.4125 62.8866C20.5868 61.8255 19.9865 60.5364 19.7177 59.0612C18.9116 54.7119 20.9297 49.6384 25.2568 45.1414C32.4417 37.6744 32.801 31.7451 31.8357 28.0862C30.7689 24.0411 27.4289 20.7068 23.0796 19.2859C23.0354 19.2752 22.7476 19.1571 22.3941 19.0227C20.2548 17.4376 19.4651 14.5552 20.1013 11.9748C20.617 9.8853 17.4223 9.27122 16.909 11.3581C16.3138 13.7738 16.5662 16.3299 17.6223 18.488C15.7822 17.8599 14.1366 16.7465 13.1221 15.0603C12.0111 13.2171 9.1288 14.8956 10.2367 16.7413C11.0289 18.0574 12.0958 19.1299 13.3167 19.9935C11.356 20.5723 9.51276 21.4548 7.99081 22.7741C6.37044 24.1863 8.23258 26.7586 10.3492 25.13C11.8333 23.9893 13.6816 23.2816 15.6094 22.8758C13.0536 25.1571 11.3453 28.237 11.68 31.8515C11.8776 33.9713 14.9107 33.6835 14.9984 31.5359C15.1739 27.1234 18.5549 24.1123 21.9258 22.8536C24.4406 23.6736 27.3394 25.6917 28.2219 29.0348C29.2527 32.9562 27.2952 37.6318 22.5615 42.5543C15.4839 49.9091 15.4372 56.4797 16.0432 59.7437C16.5722 62.6039 17.9628 65.0311 19.9537 66.7557C19.9291 67.0354 19.8988 67.3018 19.8988 67.5921C19.8988 74.1326 25.5068 81.597 32.9878 83.4511V85.9742C32.9878 86.9589 33.7857 87.7568 34.7704 87.7568H38.2259C39.2107 87.7568 40.0085 86.9589 40.0085 85.9742V83.4511C47.4921 81.597 53.1001 74.1326 53.1001 67.5921C53.1001 67.3043 53.0698 67.0354 53.0452 66.7557C55.0336 65.0305 56.4211 62.604 56.9533 59.7437C57.5593 56.4833 57.5126 49.91 50.435 42.5543C45.6986 37.6318 43.7438 32.9561 44.7746 29.0348C45.6577 25.6917 48.5564 23.6736 51.0707 22.8536C54.4409 24.1124 57.8225 27.1234 57.998 31.5359C58.0858 33.6834 61.1189 33.9738 61.3165 31.8515C61.6511 28.237 59.9429 25.1577 57.387 22.8758C59.3149 23.2817 61.1631 23.9893 62.6466 25.13C64.7676 26.7586 66.633 24.1862 65.0094 22.7741H65.0095ZM36.5 79.7398C31.0814 79.7398 26.5319 75.3684 25.2701 70.8436L47.7261 70.8379C46.4705 75.3684 41.9211 79.7398 36.4992 79.7398L36.5 79.7398Z" fill="#059BDF"/>
<path d="M14.3511 41.6329C12.4699 41.6329 10.5365 41.2794 8.71591 40.5718C5.2441 39.2172 -2.47813 34.2208 0.787969 17.1446C2.51192 8.13607 6.58473 3.99571 9.69683 2.11145C13.3769 -0.126389 17.9018 -0.597938 22.4487 0.756788C26.1946 1.88104 30.5685 5.06198 30.5685 10.3164C30.5685 13.5769 28.575 15.9983 26.192 17.348C25.3941 17.8031 23.6638 17.8359 23.2465 16.3632C22.8267 14.8962 24.0173 14.2157 24.7464 13.717C25.7665 13.0207 26.7349 11.9122 26.7349 10.3164C26.7349 7.17348 23.9516 5.21278 21.3465 4.43129C17.8551 3.38404 14.4222 3.72113 11.6826 5.3889C8.17539 7.51426 5.7097 11.8334 4.55264 17.8693C1.82693 32.121 7.52835 35.9927 10.1057 37.0027C12.9053 38.0942 16.2762 38.0418 18.4944 36.8797C19.9778 36.0982 20.9323 34.8616 21.3274 33.1887C21.6316 31.9028 21.5553 30.8796 21.2725 30.1088C20.9821 29.2995 19.7505 28.1014 20.8394 26.6975C21.9283 25.2936 23.1813 26.0556 23.8177 26.8705C25.0764 28.4613 25.8169 30.8714 25.0575 34.0743C24.4048 36.8328 22.751 38.9747 20.2751 40.2777C18.5518 41.1785 16.4895 41.6336 14.3508 41.6336L14.3511 41.6329Z" fill="#059BDF"/>
<path d="M58.6488 41.6329C60.53 41.6329 62.4634 41.2794 64.284 40.5718C67.7558 39.2171 75.478 34.2208 72.2119 17.1446C70.4867 8.13607 66.4177 3.99506 63.305 2.11145C59.6249 -0.126389 55.1001 -0.597938 50.5531 0.756788C46.8072 1.88104 42.4333 5.06198 42.4333 10.3164C42.4333 13.5769 44.4268 15.9983 46.8098 17.348C47.6077 17.8031 49.338 17.8359 49.7553 16.3632C50.1751 14.8962 48.9845 14.2157 48.2554 13.717C47.2353 13.0207 46.267 11.9122 46.267 10.3164C46.267 7.17348 49.0502 5.21278 51.6554 4.43129C55.1437 3.38657 58.577 3.72365 61.3166 5.39079C64.8238 7.51615 67.2895 11.8352 68.4466 17.8712C71.1723 32.1229 65.4709 35.9946 62.8935 37.0046C60.094 38.0961 56.723 38.0437 54.5049 36.8815C53.0214 36.1001 52.0669 34.8635 51.6718 33.1906C51.3676 31.9047 51.4439 30.8815 51.7268 30.1107C52.0171 29.3014 53.2487 28.1033 52.1598 26.6994C51.0721 25.2949 49.8166 26.0518 49.1802 26.8667C47.9215 28.4575 47.1811 30.8676 47.9404 34.0705C48.5931 36.8291 50.2469 38.9709 52.7228 40.2739C54.4481 41.1785 56.5104 41.6336 58.649 41.6336L58.6488 41.6329Z" fill="#059BDF"/>
</svg>
