<svg width="74" height="88" viewBox="0 0 74 88" fill="none" xmlns="http://www.w3.org/2000/svg">
<path d="M28.0337 50.6053C27.6538 50.6079 27.2889 50.4555 27.0231 50.184C26.4783 49.6367 26.4783 48.7515 27.0231 48.2042C27.9478 47.2763 29.0086 46.4952 30.1685 45.887C30.9271 45.4795 36.9932 43.373 39.9988 42.3623V37.2503C39.9988 36.4748 40.6276 35.8459 41.4031 35.8459C42.1786 35.8459 42.8074 36.4748 42.8074 37.2503V43.359C42.8093 43.9627 42.4244 44.5 41.8526 44.6931C37.2748 46.2661 32.0223 48.0773 31.5171 48.3726C30.6005 48.8516 29.7622 49.4672 29.0313 50.1982C28.7662 50.4609 28.4075 50.6076 28.0339 50.6051L28.0337 50.6053Z" fill="#059BDF"/>
<path d="M47.9335 41.4491C40.9958 41.4491 35.2945 33.262 35.2945 23.1929C35.2556 22.4174 35.8531 21.7572 36.6286 21.7183C37.4041 21.6801 38.0643 22.2769 38.1032 23.0524C46.6834 20.4544 47.4557 13.9808 47.4839 13.6855V13.6861C47.5385 13.0253 48.0469 12.4925 48.7046 12.4078C49.3616 12.3232 49.9885 12.7094 50.2086 13.3351C51.9658 17.3731 55.3638 20.4695 59.5474 21.8449C60.1505 22.0406 60.5474 22.6161 60.5167 23.2493C60.5167 33.262 54.8711 41.4494 47.9336 41.4494L47.9335 41.4491ZM38.3137 26.0015C39.1281 33.2201 43.1305 38.6405 47.9335 38.6405C53.1157 38.6405 57.3707 32.2371 57.7638 24.1621C54.3364 22.8217 51.3979 20.4707 49.3378 17.4213C48.0319 20.272 44.9844 24.1201 38.3137 25.9312V26.0015Z" fill="#059BDF"/>
<path d="M59.3494 34.0762C58.6397 34.0787 57.9313 34.0267 57.2291 33.922C56.4611 33.8135 55.9269 33.1026 56.0354 32.3352C56.1439 31.5672 56.8548 31.0331 57.6222 31.1416C59.7349 31.6118 61.9473 31.1566 63.7028 29.8915C64.9172 28.7799 65.731 27.2991 66.02 25.6785C63.3236 24.1199 62.9443 21.6761 62.397 18.1372C62.0309 15.6301 61.5243 13.1455 60.8805 10.6942C60.1501 7.99776 58.9565 6.20038 57.2995 5.37158V5.37221C55.9397 4.74967 54.3943 4.6644 52.9744 5.13335C52.5073 5.33021 51.9707 5.26061 51.57 4.95091C49.0666 3.18612 45.9665 2.48395 42.9472 2.99866C39.7454 3.77104 37.0207 6.45298 34.8303 10.9468V10.9475C33.4498 13.7542 32.6254 16.8012 32.4009 19.9207C32.1482 22.266 31.9232 24.3162 29.7892 25.6502H29.7885C30.0819 27.2726 30.9007 28.7535 32.12 29.8632C33.8749 31.1183 36.0804 31.5671 38.1869 31.0995C38.9543 30.991 39.6646 31.5252 39.7737 32.2932C39.8821 33.0605 39.3474 33.7708 38.58 33.8799C35.6823 34.4899 32.663 33.8078 30.3083 32.0122C28.3327 30.1534 27.1378 27.6131 26.9661 24.906C26.9191 24.3023 27.2645 23.7362 27.8225 23.5017C29.2268 22.8835 29.4237 22.1676 29.7046 19.5558C29.9761 16.1365 30.8958 12.8006 32.4149 9.7255C34.9847 4.4173 38.3413 1.29954 42.4139 0.260013C45.9931 -0.441525 49.7045 0.289478 52.7494 2.29637C54.7111 1.78416 56.7906 1.98353 58.62 2.8581C61.0073 4.06556 62.6925 6.45285 63.6335 9.96367L63.6329 9.9643C64.3112 12.5147 64.8366 15.1033 65.2058 17.7157C65.824 21.6478 66.0766 22.701 68.1267 23.5718C68.6853 23.8063 69.0307 24.3724 68.9837 24.9762C68.8031 27.714 67.5706 30.2757 65.543 32.1244C63.7782 33.4936 61.5807 34.1864 59.3495 34.076L59.3494 34.0762Z" fill="#059BDF"/>
<path d="M47.8628 52.8235H47.5819C42.6103 52.673 38.0651 49.9784 35.5468 45.6896C35.1493 45.0263 35.3624 44.1662 36.0245 43.7656C36.6878 43.3681 37.5479 43.5813 37.9485 44.2434C39.9722 47.7039 43.631 49.8833 47.6383 50.0149C51.8557 49.9917 55.7591 47.7798 57.9458 44.1732C58.3765 43.5256 59.2504 43.3494 59.898 43.7801C60.5457 44.2102 60.7218 45.0842 60.2911 45.7317C57.6292 50.0608 52.9442 52.734 47.8628 52.8237L47.8628 52.8235Z" fill="#059BDF"/>
<path d="M57.2582 80.5875H57.0055C56.6356 80.5229 56.3071 80.3122 56.0933 80.0038C55.8796 79.6947 55.7981 79.3135 55.8677 78.9443C56.3027 76.5287 56.2325 71.7257 50.9525 66.7968C47.4179 63.6276 43.4155 61.0222 39.0859 59.073C35.918 57.6342 32.9375 55.8135 30.2104 53.6526C27.0419 51.1399 24.9843 47.4841 24.4809 43.4711C24.1818 41.7232 23.6771 40.0173 22.9781 38.3873C20.9418 33.8797 15.3527 34.4972 13.6813 34.8064H13.6819C12.5603 35.3606 11.5284 36.0803 10.62 36.9411C10.4658 37.069 10.2896 37.1687 10.1009 37.2357C7.68595 37.9053 5.33615 38.7893 3.07928 39.8764C2.71441 40.1152 2.75641 41.4349 3.07928 42.4462C4.9614 44.7915 9.55299 44.8474 11.1961 44.6793V44.6787C11.6287 44.6311 12.0594 44.7865 12.3616 45.1C12.6638 45.4135 12.8042 45.8492 12.7409 46.2799C12.7409 46.2799 11.8419 53.1328 16.8555 61.8679C17.2436 62.5425 17.0103 63.4039 16.3358 63.7919C15.6612 64.1794 14.7998 63.9468 14.4117 63.2722C11.5386 58.5208 9.96926 53.0952 9.86205 47.5437C7.43265 47.5437 2.92436 47.066 0.66379 43.9063C0.557212 43.7753 0.47195 43.6286 0.411139 43.4712C0.270706 43.0217 -0.909186 39.0895 1.50638 37.4891C3.90883 36.2816 6.4196 35.3036 9.00517 34.5676C10.2126 33.4203 11.6484 32.5401 13.2182 31.984C17.6982 31.1834 23.3011 32.1244 25.59 37.1662L25.5907 37.1655C26.3593 38.9698 26.9248 40.8537 27.2759 42.7829C27.6382 46.1871 29.366 49.2986 32.0644 51.4057C34.621 53.4283 37.4183 55.1266 40.3919 56.4613C44.9561 58.5365 49.1758 61.2975 52.9049 64.6485C59.1679 70.4763 59.2106 76.3609 58.6764 79.3518C58.5906 80.0665 57.978 80.6001 57.2583 80.5875L57.2582 80.5875Z" fill="#059BDF"/>
<path d="M20.2963 85.7988H13.8646C13.454 85.7988 13.064 85.6188 12.797 85.3072C12.5312 84.9975 12.4133 84.5869 12.4741 84.1838C12.7938 82.76 13.7756 81.5751 15.1141 80.9959C15.6194 80.7012 16.1391 80.3922 16.2658 80.0969C16.1905 78.2041 15.9322 76.3227 15.4934 74.4795C14.8307 71.2985 14.39 68.0749 14.1737 64.8317C14.0376 61.6594 14.9504 58.5304 16.7718 55.9286C17.2188 55.2979 18.0908 55.1475 18.7234 55.5913C19.0306 55.8064 19.2387 56.1349 19.302 56.5041C19.3647 56.8734 19.2782 57.2527 19.0607 57.5574C17.5999 59.657 16.8696 62.1785 16.9824 64.7339C17.1931 67.8398 17.62 70.9274 18.2601 73.9742C19.0043 78.033 19.3554 80.0411 18.8501 81.2064C18.4965 81.9449 17.9354 82.565 17.2352 82.99H19.1874L21.9258 71.3203L21.9252 71.3196C21.9697 71.1479 22.0455 70.9861 22.1502 70.8425L25.5626 65.9412C25.7658 65.6139 26.0943 65.3845 26.4717 65.3068C26.8485 65.2284 27.241 65.3086 27.5575 65.5287C27.8735 65.7487 28.0854 66.0885 28.1437 66.4691C28.202 66.8496 28.1017 67.2377 27.866 67.5424L24.594 72.2606L21.6449 84.7453H21.6443C21.4857 85.361 20.9327 85.7929 20.2964 85.7986L20.2963 85.7988Z" fill="#059BDF"/>
<path d="M29.9436 79.6053H29.649C24.2422 78.4254 22.1076 72.4433 22.0235 72.1906H22.0229C21.7671 71.4578 22.1539 70.6559 22.8868 70.4002C23.6197 70.1444 24.4216 70.5312 24.6773 71.2641C24.6773 71.2641 26.3907 76.025 30.2946 76.8814C31.0701 76.9623 31.6325 77.6575 31.5516 78.433C31.4701 79.2086 30.7755 79.7709 29.9993 79.69L29.9436 79.6053Z" fill="#059BDF"/>
<path d="M16.4476 48.2605C16.2796 48.2794 16.1103 48.2794 15.9423 48.2605C15.2608 48.0706 14.7279 47.5383 14.538 46.8562C13.3393 43.7259 13.8728 40.1963 15.9423 37.5601C16.9209 36.5921 17.4896 35.2842 17.5291 33.9088C17.4513 33.5333 17.5303 33.1427 17.7479 32.8267C17.9654 32.5114 18.3027 32.2982 18.6807 32.2374C19.4092 32.0945 20.1233 32.544 20.3094 33.2624C20.3094 33.5295 20.843 35.9589 18.1747 39.2728H18.1753C16.9089 40.8501 16.4657 42.9346 16.9816 44.8901C17.9434 43.8318 19.2449 43.1415 20.6605 42.9385C21.4241 43.0582 22.2034 42.8576 22.8147 42.3849C23.4259 41.9116 23.8152 41.2075 23.8905 40.4389C23.9707 40.0665 24.1958 39.7411 24.5155 39.5343C24.8353 39.3274 25.2246 39.2559 25.597 39.3361C26.3725 39.5029 26.8659 40.2671 26.6991 41.0427C26.4753 42.4188 25.7481 43.6626 24.6578 44.5321C23.5676 45.4017 22.1928 45.8349 20.801 45.7471C20.3094 45.7471 19.4668 46.5057 18.9052 46.9972V46.9966C18.2626 47.6969 17.3911 48.1445 16.4477 48.2605L16.4476 48.2605Z" fill="#059BDF"/>
<path d="M66.8204 87.0059L36.5576 86.9075C36.2435 86.9044 35.9381 86.8016 35.6867 86.6129C34.7802 85.9991 34.1658 85.0393 33.9878 83.9584C33.9313 82.388 34.5257 80.8633 35.6309 79.7455C37.0352 78.0038 39.5492 77.7794 41.4307 77.8916C41.4307 77.7512 41.3185 77.5825 41.262 77.4139C40.0966 74.1138 41.9222 72.6674 43.6632 72.0354C45.4049 71.4034 47.4687 73.2855 49.5614 77.6527L59.8274 77.6533V69.7188C59.8274 68.9426 60.4562 68.3144 61.2317 68.3144C62.0072 68.3144 62.6361 68.9426 62.6361 69.7188V79.1843V79.1836C62.6361 79.556 62.4881 79.9134 62.2248 80.1767C61.9615 80.44 61.6041 80.588 61.2317 80.588H48.7194C48.2743 80.5735 47.863 80.3497 47.6097 79.9842C47.5326 79.8971 47.4712 79.7974 47.4273 79.6896C46.7038 77.8972 45.6832 76.2402 44.4081 74.7882C43.7197 75.0691 43.5655 75.35 43.9586 76.4734C44.3216 77.4094 44.6125 78.3718 44.8294 79.3524C44.9065 79.8144 44.7485 80.2853 44.4075 80.6069C44.0658 80.9285 43.5868 81.0583 43.1298 80.9536C41.7957 80.6445 38.7764 80.378 37.8917 81.4871C37.0071 82.5961 36.7965 83.3828 36.7965 83.6356C36.8297 83.813 36.9181 83.9748 37.0491 84.0989L66.8209 84.1974C67.8716 84.1974 68.8784 83.7798 69.6213 83.0375C70.3636 82.2946 70.7812 81.2878 70.7812 80.237V57.7678C70.5354 55.5109 69.6596 53.3687 68.254 51.5856C66.8484 49.8026 64.9695 48.451 62.833 47.6847L54.0278 44.6655C53.4554 44.4724 53.0711 43.9352 53.073 43.3314V37.2508C53.073 36.4753 53.7011 35.8464 54.4773 35.8464C55.2528 35.8464 55.8816 36.4753 55.8816 37.2508V42.3628L63.6755 45.0311V45.0304C66.3073 45.9664 68.6239 47.6221 70.3617 49.8095C72.0996 51.9962 73.1885 54.6275 73.5058 57.4028C73.5127 57.4774 73.5127 57.5526 73.5058 57.6272V80.2377C73.5058 82.0189 72.8043 83.7278 71.5529 84.9949C70.3016 86.2619 68.6013 86.9847 66.8209 87.0067L66.8204 87.0059Z" fill="#059BDF"/>
<path d="M60.7409 57.0944C59.9654 57.0944 59.3365 56.4655 59.3365 55.69V45.5086C59.3365 44.7331 59.9654 44.1042 60.7409 44.1042C61.5164 44.1042 62.1452 44.7331 62.1452 45.5086V55.69C62.1452 56.0624 61.9972 56.4198 61.7339 56.6831C61.4706 56.9464 61.1133 57.0944 60.7409 57.0944Z" fill="#059BDF"/>
<path d="M60.7409 65.477C59.2513 65.477 57.8225 64.8852 56.7687 63.8313C55.7154 62.7781 55.1236 61.3493 55.1236 59.8597C55.1236 58.3695 55.7154 56.9407 56.7687 55.8875C57.8225 54.8343 59.2514 54.2424 60.7409 54.2424C62.2305 54.2424 63.6593 54.8343 64.7131 55.8875C65.7664 56.9407 66.3582 58.3695 66.3582 59.8597C66.3582 61.3493 65.7664 62.7782 64.7131 63.8313C63.6593 64.8852 62.2305 65.477 60.7409 65.477ZM60.7409 57.0511C59.9961 57.0511 59.2814 57.347 58.7548 57.8736C58.2282 58.4002 57.9323 59.1149 57.9323 59.8597C57.9323 60.6045 58.2282 61.3186 58.7548 61.8459C59.2814 62.3725 59.9961 62.6684 60.7409 62.6684C61.4857 62.6684 62.2004 62.3725 62.727 61.8459C63.2536 61.3186 63.5496 60.6045 63.5496 59.8597C63.5383 59.1218 63.238 58.4184 62.712 57.9006C62.1866 57.3834 61.4788 57.0931 60.7409 57.0931L60.7409 57.0511Z" fill="#059BDF"/>
</svg>
